<?xml version="1.0" encoding="UTF-8" standalone="no"?>
<svg
   xmlns:dc="http://purl.org/dc/elements/1.1/"
   xmlns:cc="http://creativecommons.org/ns#"
   xmlns:rdf="http://www.w3.org/1999/02/22-rdf-syntax-ns#"
   xmlns:svg="http://www.w3.org/2000/svg"
   xmlns="http://www.w3.org/2000/svg"
   xmlns:sodipodi="http://sodipodi.sourceforge.net/DTD/sodipodi-0.dtd"
   xmlns:inkscape="http://www.inkscape.org/namespaces/inkscape"
   height="724"
   width="724"
   viewBox="0 0 735 735"
   version="1.1"
   id="svg24"
   sodipodi:docname="environmentdanger.svg"
   inkscape:version="1.0.1 (c497b03c, 2020-09-10)">
  <metadata
     id="metadata30">
    <rdf:RDF>
      <cc:Work
         rdf:about="">
        <dc:format>image/svg+xml</dc:format>
        <dc:type
           rdf:resource="http://purl.org/dc/dcmitype/StillImage" />
      </cc:Work>
    </rdf:RDF>
  </metadata>
  <defs
     id="defs28">
    <filter
       style="color-interpolation-filters:sRGB"
       inkscape:label="Drop Shadow"
       id="filter214">
      <feFlood
         flood-opacity="1"
         flood-color="rgb(0,0,0)"
         result="flood"
         id="feFlood204" />
      <feComposite
         in="flood"
         in2="SourceGraphic"
         operator="in"
         result="composite1"
         id="feComposite206" />
      <feGaussianBlur
         in="composite1"
         stdDeviation="10.8108"
         result="blur"
         id="feGaussianBlur208" />
      <feOffset
         dx="6"
         dy="6"
         result="offset"
         id="feOffset210" />
      <feComposite
         in="SourceGraphic"
         in2="offset"
         operator="over"
         result="composite2"
         id="feComposite212" />
    </filter>
  </defs>
  <sodipodi:namedview
     pagecolor="#ffffff"
     bordercolor="#666666"
     borderopacity="1"
     objecttolerance="10"
     gridtolerance="10"
     guidetolerance="10"
     inkscape:pageopacity="0"
     inkscape:pageshadow="2"
     inkscape:window-width="1920"
     inkscape:window-height="1035"
     id="namedview26"
     showgrid="false"
     inkscape:zoom="2.461326"
     inkscape:cx="528.88944"
     inkscape:cy="344.0469"
     inkscape:window-x="977"
     inkscape:window-y="23"
     inkscape:window-maximized="1"
     inkscape:current-layer="svg24"
     inkscape:document-rotation="0" />
  <path
     d="M 369.38869,670.3 64.7,367.5 369.38869,64.7 674.07738,367.5 Z"
     fill="#fff"
     id="path12"
     style="fill:#808080;stroke-width:1.00311" />
  <g
     stroke="#000"
     stroke-width="5"
     id="g20"
     style="fill:#e6e6e6">
    <path
       d="m223.7 367.2h281.2"
       id="path14"
       style="fill:#e6e6e6" />
    <path
       stroke-width="4"
       d="m462.7 418 32.98 23.79-31.36 15.1 42.2 3.79-11.36 15.1h23.3l.54 16.76-294.2-1.605s49.2-14.58 57.3-8.635c10.82-4.87 89.8-38.4 89.8-36.2m-75.72-25.98 1.62-85.4-42.72-23.2s-6.49-4.33-15.68-1.62c-3.25 1.08-7.57 2.16-7.57 2.16s23.3-19.47 27.58-17.84c4.33 1.62 34.61 16.22 34.61 16.22s-3.25-22.71-11.36-29.2-39.47-31.36-39.47-31.36v-5.95l42.72 25.96s1.62-24.87-7-39.47c-8.65-14.6-15.1-27.58-15.1-27.58l2.7-2.16 21.1 32.44 7-22.2 4.33-1.08s-5.41 31.36-1.62 41.1c3.79 9.73 17.84 62.73 17.84 62.73l21.1-30.3s.54-12.44-.54-21.1c-1.08-8.65-2.7-48.67-2.7-48.67h3.79l5.95 43.8 34.1-39.47v4.33s-33.51 42.2-31.89 51.4c1.62 9.19 3.24 14.6-2.7 27.58s-9.73 22.2-9.73 22.2 17.84-21.1 25.96-22.71c8.11-.54 18.91.54 26.48-5.95s25.96-27 25.96-27l-28.66 44.3s-13.51.54-18.91 6.49c-5.41 5.95-27.58 31.36-27.58 31.36v58.4l36.76 18.38-44.87 6.49-10.82 15.68-14.6-12.44-40.62 3.735z"
       id="path16"
       style="fill:#e6e6e6" />
    <path
       fill="#fff"
       d="m355.2 445.1c10.29-4.29 27-11.36 36.76-25.42 10.1-14.54 45.96-75.7 95.2-70.8-2.7 6.49-11.36 20.55-11.36 20.55l35.1-10.82s.54 46.5-65.97 76.2c-30.82 10.82-37.3 11.36-40 15.1-2.7 3.79-15.1 22.71-15.1 22.71l-55.14-24.3s14.06-.515 20.51-3.215z"
       id="path18"
       style="fill:#e6e6e6" />
  </g>
  <ellipse
     cy="385.8"
     cx="484.3"
     rx="5.95"
     ry="5.13"
     id="ellipse22" />
  <path
     d="M 147.65941,148.01233 6,289.67173 147.66886,431.34059 289.32827,573 431.01602,431.31224 572.70378,289.62449 431.06327,147.98398 C 353.16571,70.086424 289.40386,6.34347 289.37551,6.34347 c -0.0284,0 -63.79965,63.752403 -141.7161,141.66886 z M 408.62189,170.42535 527.82103,289.62449 408.57465,408.87087 289.31882,528.1267 170.12913,408.87087 50.948893,289.60559 170.13858,170.41591 C 235.69574,104.85874 289.34716,51.22622 289.37551,51.22622 c 0.0283,0 53.68922,53.64197 119.24638,119.19913 z"
     style="fill:#ff0000;stroke:none;"
     id="path12-7"
     transform="matrix(1.2779578,0,0,1.2739946,-0.41053521,-1.4559578)" />
</svg>
