<?xml version="1.0" encoding="UTF-8" standalone="no"?>
<svg
   xmlns:dc="http://purl.org/dc/elements/1.1/"
   xmlns:cc="http://creativecommons.org/ns#"
   xmlns:rdf="http://www.w3.org/1999/02/22-rdf-syntax-ns#"
   xmlns:svg="http://www.w3.org/2000/svg"
   xmlns="http://www.w3.org/2000/svg"
   xmlns:sodipodi="http://sodipodi.sourceforge.net/DTD/sodipodi-0.dtd"
   xmlns:inkscape="http://www.inkscape.org/namespaces/inkscape"
   version="1.1"
   width="579pt"
   height="579pt"
   viewBox="0 0 579 579"
   id="svg1054"
   sodipodi:docname="warning.svg"
   inkscape:version="1.0.1 (c497b03c, 2020-09-10)">
  <metadata
     id="metadata1060">
    <rdf:RDF>
      <cc:Work
         rdf:about="">
        <dc:format>image/svg+xml</dc:format>
        <dc:type
           rdf:resource="http://purl.org/dc/dcmitype/StillImage" />
      </cc:Work>
    </rdf:RDF>
  </metadata>
  <defs
     id="defs1058">
    <filter
       style="color-interpolation-filters:sRGB;"
       inkscape:label="Drop Shadow"
       id="filter1072">
      <feFlood
         flood-opacity="1"
         flood-color="rgb(0,0,0)"
         result="flood"
         id="feFlood1062" />
      <feComposite
         in="flood"
         in2="SourceGraphic"
         operator="in"
         result="composite1"
         id="feComposite1064" />
      <feGaussianBlur
         in="composite1"
         stdDeviation="10"
         result="blur"
         id="feGaussianBlur1066" />
      <feOffset
         dx="6"
         dy="6"
         result="offset"
         id="feOffset1068" />
      <feComposite
         in="SourceGraphic"
         in2="offset"
         operator="over"
         result="composite2"
         id="feComposite1070" />
    </filter>
  </defs>
  <sodipodi:namedview
     pagecolor="#ffffff"
     bordercolor="#666666"
     borderopacity="1"
     objecttolerance="10"
     gridtolerance="10"
     guidetolerance="10"
     inkscape:pageopacity="0"
     inkscape:pageshadow="2"
     inkscape:window-width="1920"
     inkscape:window-height="1035"
     id="namedview1056"
     showgrid="false"
     inkscape:zoom="0.57707255"
     inkscape:cx="814.69397"
     inkscape:cy="493.43681"
     inkscape:window-x="977"
     inkscape:window-y="23"
     inkscape:window-maximized="1"
     inkscape:current-layer="svg1054"
     inkscape:document-rotation="0" />
  <path
     d="M 25.301165,289.67172 289.32987,553.70044 553.40261,289.6277 C 465.35022,201.6757 377.47182,113.54942 289.3739,25.643024 L 25.301165,289.67172 z"
     style="fill:#808080;stroke:none"
     id="path1048" />
  <path
     d="M 6,289.67173 289.32827,573 572.70378,289.62449 289.37551,6.34347 6,289.67173 z M 527.82103,289.62449 289.32827,528.1078 50.948893,289.60559 289.37551,51.22622 527.82103,289.62449 z"
     style="fill:Red;stroke:none;"
     id="path1050" />
  <path
     d="m 289.175,142.825 c -0.872848,0.00944 -1.58484,0.03112 -1.925,0.05 -12.359296,0.850408 -23.290032,5.218384 -30.15,12.05 -2.18272,2.173272 -3.565528,4.058816 -4.775,6.525 -0.850408,1.729168 -1.281488,3.03028 -1.65,4.75 -0.236232,1.124432 -0.275,1.370632 -0.275,3.525 0.0,2.088232 0.0232,2.437184 0.25,3.675 0.245672,1.379552 19.500968,131.43008 19.775,133.575 0.188976,1.492936 0.70196,3.461 1.25,4.85 2.863048,7.22848 9.184696,12.28836 16.725,13.375 1.417352,0.207872 4.507648,0.207872 5.925,0.0 9.32616,-1.34176 16.756072,-8.88604 17.975,-18.25 0.34016,-2.617376 19.529328,-132.364936 19.775,-133.65 0.217328,-1.228368 0.225,-1.578504 0.225,-3.525 0.0,-2.2772 -0.06536,-3.093672 -0.5,-4.7 -0.737024,-2.702408 -2.197408,-5.506064 -4.125,-7.925 -1.530744,-1.9276 -4.031056,-4.199176 -6.45,-5.9 -5.442616,-3.817392 -13.012448,-6.694472 -20.6,-7.8 -3.40164,-0.491352 -4.619216,-0.5872 -8.55,-0.625 -0.987424,-0.00944 -2.027152,-0.00944 -2.9,0.0 z m 2.1,201.125 c -0.496664,-0.0016 -0.969088,0.0064 -1.425,0.02496 -7.502512,0.321256 -14.609544,3.515648 -20.175,9.1 -1.681928,1.681928 -2.752144,2.965712 -4.075,4.95 -3.070928,4.62056 -4.702928,9.105992 -5.525,15.125 -0.160632,1.209472 -0.17008,6.68324 0.0,8.025 0.812616,6.614304 3.234184,12.48868 7.25,17.525 0.973248,1.228368 2.949968,3.270056 4.15,4.3 3.628408,3.10872 8.006216,5.42892 12.4,6.525 2.872496,0.71812 4.36628,0.9 7.475,0.9 3.06148,0.0 4.613128,-0.19468 7.325,-0.875 7.389112,-1.84256 14.03732,-6.601248 18.45,-13.225 3.250456,-4.894592 5.1242,-10.315432 5.625,-16.325 0.132288,-1.615768 0.0484,-5.707648 -0.15,-7.125 -0.557488,-4.11032 -1.552528,-7.451112 -3.225,-10.9 -4.715056,-9.685224 -13.704528,-16.392096 -23.9,-17.8 -1.112624,-0.148824 -2.710008,-0.221016 -4.2,-0.225 z"
     style="fill:#e6e6e6;stroke:none"
     id="path1052" />
</svg>
