<?xml version="1.0" encoding="UTF-8" standalone="no"?>
<svg
   xmlns:dc="http://purl.org/dc/elements/1.1/"
   xmlns:cc="http://creativecommons.org/ns#"
   xmlns:rdf="http://www.w3.org/1999/02/22-rdf-syntax-ns#"
   xmlns:svg="http://www.w3.org/2000/svg"
   xmlns="http://www.w3.org/2000/svg"
   xmlns:sodipodi="http://sodipodi.sourceforge.net/DTD/sodipodi-0.dtd"
   xmlns:inkscape="http://www.inkscape.org/namespaces/inkscape"
   version="1.0"
   width="200"
   height="200"
   viewBox="0 0 150 150"
   id="svg839"
   sodipodi:docname="compressedgas.svg"
   inkscape:version="1.0.1 (c497b03c, 2020-09-10)">
  <metadata
     id="metadata845">
    <rdf:RDF>
      <cc:Work
         rdf:about="">
        <dc:format>image/svg+xml</dc:format>
        <dc:type
           rdf:resource="http://purl.org/dc/dcmitype/StillImage" />
        <dc:title></dc:title>
      </cc:Work>
    </rdf:RDF>
  </metadata>
  <defs
     id="defs843" />
  <sodipodi:namedview
     pagecolor="#ffffff"
     bordercolor="#666666"
     borderopacity="1"
     objecttolerance="10"
     gridtolerance="10"
     guidetolerance="10"
     inkscape:pageopacity="0"
     inkscape:pageshadow="2"
     inkscape:window-width="1920"
     inkscape:window-height="1035"
     id="namedview841"
     showgrid="false"
     units="px"
     inkscape:zoom="0.86528497"
     inkscape:cx="386"
     inkscape:cy="386"
     inkscape:window-x="1920"
     inkscape:window-y="57"
     inkscape:window-maximized="1"
     inkscape:current-layer="svg839" />
  <path
     d="M 5.0414317,74.409335 74.926807,144.30054 144.82383,74.397682 C 121.51737,51.115854 98.256975,27.787891 74.938462,4.5181353 Z"
     style="fill:#ffffff;stroke:none;stroke-width:0.999998"
     id="path833" />
  <path
     d="M 37.428259,36.91059 -0.06736527,74.409337 37.43076,111.91059 74.926384,149.40934 112.4295,111.90309 149.93263,74.396832 112.44201,36.903085 C 91.823423,16.282775 74.946392,-0.59066174 74.938888,-0.59066174 c -0.0075,0 -16.887037,16.87593774 -37.510629,37.50125174 z M 106.50203,42.843554 138.05268,74.396832 106.48953,105.96262 74.923883,137.5309 43.375736,105.96262 11.830092,74.391829 43.378238,42.841055 c 17.352229,-17.353679 31.553146,-31.550776 31.56065,-31.550776 0.0075,0 14.210922,14.199599 31.563142,31.553275 z"
     style="fill:#ff0000;stroke:none;stroke-width:0.999998"
     id="path835" />
  <path
     d="m 91.011965,58.719481 c -0.205085,-5.29e-4 -0.412556,0.0093 -0.542611,0.03309 -0.252607,0.04753 -48.970974,13.128291 -49.146047,13.195824 -1.380575,0.542771 -2.307216,2.04782 -2.587331,4.208899 -0.05752,0.43772 -0.08456,1.236834 -0.05955,1.74709 0.04002,0.827914 0.148128,1.533013 0.350712,2.355925 0.825343,3.351676 2.910646,5.98516 5.141575,6.48541 0.260108,0.05753 0.871433,0.07399 1.131543,0.02647 0.220092,-0.03752 48.497031,-12.983688 48.987229,-13.136265 0.93289,-0.290144 1.63538,-0.941422 2.1506,-1.991947 0.28762,-0.582792 0.46122,-1.146681 0.60878,-1.972094 0.11755,-0.650325 0.21867,-0.929815 0.49629,-1.350024 0.33764,-0.512758 0.92259,-0.949933 1.51534,-1.12502 0.0975,-0.02751 2.507135,-0.673173 5.353325,-1.436056 2.84618,-0.765381 5.23609,-1.420889 5.31362,-1.455908 1.15048,-0.527761 1.56933,-2.208324 0.90656,-3.626535 -0.36515,-0.777887 -1.0268,-1.352158 -1.72709,-1.502233 -0.2376,-0.05003 -0.60029,-0.04429 -0.84039,0.01323 -0.11005,0.02751 -2.48026,0.661711 -5.27392,1.409584 -2.791155,0.750376 -5.139325,1.378841 -5.214355,1.396349 -0.09,0.0225 -0.28808,0.03309 -0.5757,0.03309 -0.4802,-0.0024 -0.66448,-0.03434 -1.05214,-0.191916 -0.4852,-0.2001 -0.79103,-0.443848 -1.28374,-1.019135 -0.7378,-0.860432 -1.403663,-1.403533 -2.143971,-1.753708 -0.317631,-0.147574 -0.659371,-0.258509 -0.959496,-0.311035 -0.137558,-0.02377 -0.344144,-0.03246 -0.549229,-0.03309 z"
     style="fill:#000000;stroke:none;stroke-width:0.799997"
     id="path837" />
</svg>
