<?xml version="1.0" encoding="UTF-8" standalone="no"?>
<svg
   xmlns:dc="http://purl.org/dc/elements/1.1/"
   xmlns:cc="http://creativecommons.org/ns#"
   xmlns:rdf="http://www.w3.org/1999/02/22-rdf-syntax-ns#"
   xmlns:svg="http://www.w3.org/2000/svg"
   xmlns="http://www.w3.org/2000/svg"
   xmlns:sodipodi="http://sodipodi.sourceforge.net/DTD/sodipodi-0.dtd"
   xmlns:inkscape="http://www.inkscape.org/namespaces/inkscape"
   height="200"
   width="200"
   viewBox="0 0 203.03867 203.03868"
   version="1.1"
   id="svg54"
   sodipodi:docname="corrosive.svg"
   inkscape:version="1.0.1 (c497b03c, 2020-09-10)">
  <metadata
     id="metadata60">
    <rdf:RDF>
      <cc:Work
         rdf:about="">
        <dc:format>image/svg+xml</dc:format>
        <dc:type
           rdf:resource="http://purl.org/dc/dcmitype/StillImage" />
        <dc:title></dc:title>
      </cc:Work>
    </rdf:RDF>
  </metadata>
  <defs
     id="defs58" />
  <sodipodi:namedview
     pagecolor="#ffffff"
     bordercolor="#666666"
     borderopacity="1"
     objecttolerance="10"
     gridtolerance="10"
     guidetolerance="10"
     inkscape:pageopacity="0"
     inkscape:pageshadow="2"
     inkscape:window-width="1920"
     inkscape:window-height="1035"
     id="namedview56"
     showgrid="false"
     units="px"
     inkscape:zoom="1.230663"
     inkscape:cx="455.33782"
     inkscape:cy="114.38934"
     inkscape:window-x="1920"
     inkscape:window-y="57"
     inkscape:window-maximized="1"
     inkscape:current-layer="svg54" />
  <path
     d="M 101.87437,203.16516 203.39371,101.64582 101.87437,0.12647193 0.35503278,101.64582 Z"
     fill="#ff0000"
     id="path10"
     style="stroke-width:1" />
  <path
     d="M 101.87437,187.06306 16.485333,101.67402 101.87437,16.284967 187.26341,101.67402 Z"
     fill="#ffffff"
     id="path12"
     style="stroke-width:1" />
  <path
     d="m 64.030223,106.35519 c -3.13018,0 -5.047768,-1.0857 -5.950162,-2.85664 H 35.525849 V 113.8084 H 91.728082 V 103.49855 H 71.283215 c -1.390251,1.78222 -4.100253,2.85664 -7.264272,2.85664"
     id="path14"
     style="stroke-width:1" />
  <path
     d="m 69.218989,102.52001 c 0.916494,0 2.230605,-0.44274 3.290918,-2.566185 0.242519,-0.48222 0.290458,-1.09697 0.344038,-1.74839 0.0282,-0.3384 0.07332,-0.88265 0.152279,-1.09133 0.101519,-0.0705 0.335578,-0.17202 0.501957,-0.24534 0.623216,-0.27354 1.47767,-0.64578 1.926047,-1.54253 0.250978,-0.501963 0.324298,-0.998273 0.324298,-1.472033 0,-0.35532 -0.0423,-0.69654 -0.08178,-1.02083 -0.0423,-0.341223 -0.07896,-0.668341 -0.07896,-1.006738 0,-0.11562 2.82e-4,-0.231239 0.0141,-0.349678 0.05076,-0.592196 1.091333,-1.875288 2.027567,-2.701542 l -1.429731,-1.62713 c -0.434277,0.380698 -2.602843,2.368785 -2.757942,4.142553 -0.05922,0.696536 0.01128,1.285912 0.07332,1.804785 0.07332,0.61758 0.109979,0.98136 -0.03102,1.26336 -0.0987,0.19457 -0.499137,0.37223 -0.857275,0.52733 -0.552716,0.242523 -1.175932,0.513243 -1.52279,1.147733 -0.304558,0.56118 -0.363777,1.29156 -0.422997,1.99937 -0.02538,0.3243 -0.06486,0.8178 -0.126899,0.96443 -0.186119,0.36942 -0.380698,0.66834 -0.580916,0.89112 -0.135359,0.372245 -0.369418,0.905215 -0.769855,1.480495 v 1.15055"
     id="path16"
     style="stroke-width:1" />
  <path
     d="m 66.399007,101.16642 1.237972,1.77659 c 0.707815,-0.4935 1.215412,-1.05185 1.58201,-1.57637 0.400437,-0.57246 0.631676,-1.10543 0.769855,-1.480495 0.05076,-0.141 0.09024,-0.25944 0.118439,-0.34686 0.194579,-0.60629 0.05076,-1.18157 -0.07614,-1.68635 -0.132539,-0.53015 -0.208678,-0.87137 -0.06204,-1.19285 0.169199,-0.37788 0.456837,-0.60348 0.820614,-0.88829 0.414538,-0.3243 0.930594,-0.730383 1.252072,-1.409993 0.400438,-0.84036 0.166379,-1.768133 -0.05922,-2.662068 -0.157919,-0.628855 -0.321478,-1.280271 -0.234059,-1.776588 l -2.131906,-0.377877 c -0.0423,0.231238 -0.05922,0.459657 -0.05922,0.688075 0,0.707815 0.169199,1.384611 0.327118,1.999367 0.08742,0.346858 0.214319,0.845991 0.214319,1.099791 0,0.0451 -2.82e-4,0.0818 -0.01128,0.10998 -0.09588,0.20304 -0.293278,0.36378 -0.631676,0.63168 -0.476577,0.37505 -1.068773,0.84035 -1.45511,1.691993 -0.200219,0.44555 -0.267899,0.87701 -0.267899,1.27181 0,0.51887 0.11562,0.97853 0.205859,1.33667 0.0423,0.1692 0.104339,0.41736 0.107159,0.51888 -0.222778,0.68243 -0.611936,1.550995 -1.638409,2.255985"
     id="path18"
     style="stroke-width:1" />
  <path
     d="m 56.895669,96.739045 c 0.143819,0.2679 0.236879,0.51888 0.298918,0.75575 0.214319,0.13818 0.530157,0.34404 0.592196,0.44556 0.09588,0.2538 0.0056,0.96726 -0.0564,1.44101 -0.01974,0.1551 -0.03948,0.30456 -0.05358,0.4512 0.516057,0.516065 1.328211,1.113895 1.765308,1.333855 l -0.814974,1.63277 c 0.403257,0.57528 0.874194,1.15055 1.302831,1.62149 l 1.60175,-1.45793 c -0.922134,-1.01519 -1.57073,-2.00219 -1.725829,-2.43647 -2.82e-4,-0.0197 -2.82e-4,-0.0395 -2.82e-4,-0.0677 0,-0.18894 0.04512,-0.549905 0.07896,-0.800885 0.05358,-0.42582 0.112799,-0.87983 0.112799,-1.32821 0,-0.40608 -0.04794,-0.80934 -0.188939,-1.17875 -0.284818,-0.74448 -0.953154,-1.1703 -1.48613,-1.51151 -0.315838,-0.20022 -0.747295,-0.47658 -0.769855,-0.651423 -0.0056,-0.0451 -0.0085,-0.0874 -0.0085,-0.13254 0,-0.21714 0.06768,-0.43992 0.188939,-0.81779 0.177658,-0.5499 0.411717,-1.27745 0.411717,-2.340588 0,-0.143819 -0.0056,-0.293278 -0.0141,-0.448377 l -2.162926,0.12972 c 0.05358,0.902394 -0.118439,1.432555 -0.298918,2.002185 -0.169199,0.52734 -0.363778,1.12799 -0.270718,1.880933 0.0056,0.0367 0.01128,0.0705 0.01692,0.10716 0.501956,0.26508 1.088513,0.64577 1.48049,1.37333"
     id="path20"
     style="stroke-width:1" />
  <path
     d="m 52.327299,92.255271 c 0.03666,0.422997 -0.03102,0.721911 -0.107159,1.071591 -0.13254,0.59502 -0.296098,1.33385 0.194578,2.309573 0.437097,0.87137 1.187213,1.24643 1.734289,1.51715 0.442737,0.21996 0.699355,0.35813 0.843175,0.61757 0.177658,0.32712 0.157918,0.55272 0.124079,0.92778 -0.03948,0.45683 -0.09588,1.08569 0.301738,1.762495 0.648595,1.10543 2.337764,2.287 3.05686,2.64514 l 0.152279,-0.30456 0.814974,-1.63277 c -0.439917,-0.21996 -1.252071,-0.81497 -1.765308,-1.333855 -0.172019,-0.17202 -0.310198,-0.33558 -0.391977,-0.47376 -0.03948,-0.0649 -0.0423,-0.14664 -0.01128,-0.47093 0.03102,-0.34968 0.0705,-0.82908 -0.07896,-1.39308 -0.06204,-0.23687 -0.155099,-0.49067 -0.298918,-0.75575 -0.394797,-0.72756 -0.978534,-1.10825 -1.48331,-1.37333 -0.10434,-0.0536 -0.205859,-0.10716 -0.301738,-0.1551 -0.462477,-0.228423 -0.659876,-0.341223 -0.761395,-0.547083 -0.140999,-0.282 -0.124079,-0.39197 -0.01692,-0.87419 0.09024,-0.41172 0.217138,-0.97289 0.152279,-1.72583 -0.124079,-1.429731 -1.229512,-2.628223 -2.120626,-3.589836 l -0.657056,-0.736016 -1.675069,1.370511 0.741655,0.834715 c 0.665516,0.719095 1.49177,1.615849 1.55381,2.306745"
     id="path22"
     style="stroke-width:1" />
  <path
     d="m 61.915236,93.721662 c 0,1.663793 0.400438,3.900033 2.351865,3.900033 1.948607,0 2.464664,-2.52106 2.464664,-3.553173 0,-0.91086 -1.384611,-4.768592 -1.720189,-8.262549 -0.431457,-0.0056 -0.792415,-0.129719 -1.094153,-0.327118 -0.301738,3.919774 -2.016287,6.728476 -2.016287,8.234347"
     id="path24"
     style="stroke-width:1" />
  <path
     d="m 92.455637,62.194267 c -4.258172,0.676796 -23.716045,4.173573 -25.577233,4.54017 -2.766402,0.530157 -3.412178,-1.973987 -4.66989,-2.571823 0,0 1.864008,10.949989 1.973988,11.764963 0.389157,2.927141 -1.61303,4.433011 -1.61303,6.621317 0,0.792415 0.344038,2.255985 1.350771,2.918681 0.301738,0.197399 0.662696,0.318658 1.094153,0.327118 0.0141,0 0.02538,0 0.03948,0 1.895027,0 2.301105,-1.895028 2.301105,-3.338858 0,-2.233426 -1.082873,-3.519337 -1.082873,-4.060774 0,-0.541436 0.451197,-1.173112 2.165746,-1.44383 1.714549,-0.270719 23.152049,-3.993094 26.536024,-4.540171 3.383969,-0.547076 5.888112,-3.316298 5.346682,-6.158839 -0.541443,-2.848182 -3.587023,-4.73757 -7.850823,-4.060774 m 1.466391,7.986188 c -2.887662,0.180479 -28.115217,2.616943 -28.115217,2.616943 l -0.541437,-3.564457 c 0,0 24.956838,-4.331492 27.889614,-4.822168 2.932785,-0.496317 5.008279,0.676795 5.008279,2.526703 0,1.849908 -1.35359,3.06814 -4.229959,3.248619"
     id="path26"
     style="stroke-width:1" />
  <path
     d="m 138.90073,84.387522 c -0.58374,3.011741 -1.83863,5.902222 -1.83863,6.694637 0,1.032113 0.30738,3.609573 2.25598,3.609573 1.94861,0 2.56619,-2.292642 2.56619,-3.947971 0,-1.314112 -1.15056,-3.440378 -1.63277,-6.514158 -0.282,0.124079 -0.60348,0.197399 -0.9729,0.197399 -0.13254,0 -0.25379,-0.0141 -0.37223,-0.03666"
     id="path28"
     style="stroke-width:1" />
  <path
     d="m 107.57073,71.782204 c 3.38398,0.541437 27.10002,4.492231 28.82021,4.765769 0.97854,0.155099 1.77941,0.800875 1.77941,1.068773 0,0.267899 -1.04621,1.268992 -1.04621,3.025841 0,1.342311 0.20868,3.457297 1.76531,3.747755 0.11562,0.02256 0.23969,0.03666 0.37223,0.03666 0.36942,0 0.6909,-0.0705 0.9729,-0.197399 1.16747,-0.516056 1.62995,-1.971167 1.62995,-3.296558 0,-3.09352 -1.60739,-2.484404 -1.22106,-5.414365 0.10716,-0.812155 1.66943,-11.432205 1.66943,-11.432205 -1.26335,0.586556 -1.59893,2.769222 -4.36533,2.239065 -1.88093,-0.360958 -23.63144,-4.373791 -27.88962,-5.050587 -4.25817,-0.676796 -7.15147,1.53971 -7.69855,4.382251 -0.54707,2.842542 1.82735,5.580744 5.21133,6.12218 m 2.53798,-8.389445 c 2.9356,0.482217 29.35601,5.104167 29.35601,5.104167 l -0.54143,3.564457 c 0,0 -27.32563,-2.391345 -30.20201,-2.571824 -2.88766,-0.180478 -4.19613,-1.173112 -4.19613,-3.02302 0,-1.849908 2.30111,-3.609576 5.59484,-3.06814"
     id="path30"
     style="stroke-width:1" />
  <path
     d="m 148.46046,87.7715 c 0.0141,0.304558 0.0226,0.470937 -0.14382,0.845995 -0.31583,0.699355 -0.86573,1.570729 -1.69198,1.768128 l 0.49349,2.109346 c 0.93906,-0.219958 2.25317,-0.916494 3.18658,-2.98918 0.38352,-0.845995 0.3525,-1.438191 0.33276,-1.844268 -0.0169,-0.338398 -0.0254,-0.479397 0.26226,-0.933414 0.20586,-0.321478 0.26226,-0.335578 0.50759,-0.400437 0.55554,-0.14664 1.19286,-0.386338 1.74275,-1.409991 0.62604,-1.167473 0.423,-2.137546 0.27636,-2.848182 -0.079,-0.389157 -0.14382,-0.693715 -0.0931,-1.012373 0.0761,-0.485037 0.41736,-0.857274 1.06877,-1.52561 0.3525,-0.363778 0.75294,-0.775495 1.15902,-1.291552 l -1.69199,-1.339491 c -0.33276,0.425817 -0.6768,0.778315 -1.00956,1.119533 -0.72191,0.741655 -1.46639,1.50869 -1.65532,2.695902 -0.1128,0.707816 0.0113,1.308472 0.11279,1.790688 0.12972,0.631676 0.17766,0.927774 -0.0649,1.381791 -0.14664,0.276359 -0.15228,0.276359 -0.38352,0.338398 -0.54426,0.143819 -1.17875,0.375058 -1.78787,1.336672 -0.6063,0.955973 -0.62886,1.587649 -0.59784,2.202405"
     id="path32"
     style="stroke-width:1" />
  <path
     d="m 144.76629,91.437476 c 1.03775,-0.913674 1.35923,-1.243612 1.83299,-2.766402 0.30737,-0.989813 0.23687,-1.644049 0.18047,-2.168566 -0.0451,-0.417357 -0.0761,-0.719095 0.0649,-1.257711 0.0733,-0.276359 0.0987,-0.287639 0.40044,-0.451197 0.46248,-0.248159 1.23515,-0.662696 1.57637,-2.005007 0.31302,-1.232332 -0.0423,-2.007827 -0.30174,-2.574644 -0.20304,-0.439917 -0.32429,-0.707815 -0.21714,-1.285911 l -2.1319,-0.389158 c -0.2256,1.249252 0.12408,2.016287 0.3807,2.574644 0.20303,0.442737 0.29609,0.645775 0.17201,1.127992 -0.10715,0.420177 -0.18329,0.459657 -0.50195,0.631676 -0.43146,0.231239 -1.15619,0.620396 -1.47203,1.801968 -0.24816,0.927774 -0.18048,1.54817 -0.1269,2.047307 0.0479,0.439917 0.079,0.733195 -0.0959,1.291552 -0.31302,1.006733 -0.34686,1.037753 -1.19567,1.782228 l -0.50478,0.448377 1.44947,1.610209 0.48504,-0.431457"
     id="path34"
     style="stroke-width:1" />
  <path
     d="m 128.72059,84.218323 c 0.24534,1.085693 1.01802,1.56227 1.58201,1.911948 0.51324,0.318658 0.68808,0.448377 0.75858,0.789595 0.1128,0.530156 0.062,0.682435 -0.0141,0.908034 -0.15228,0.451197 -0.2679,0.924954 -0.0367,1.742748 0.40607,1.438191 0.84035,1.906308 2.28418,3.347314 l 1.53125,-1.531245 c -1.36769,-1.367692 -1.48049,-1.525611 -1.73429,-2.411085 -0.0677,-0.236878 -0.062,-0.253798 0.006,-0.459657 0.15792,-0.473757 0.2961,-1.023653 0.079,-2.047306 -0.27071,-1.274632 -1.15619,-1.818889 -1.73993,-2.179846 -0.44273,-0.273538 -0.56399,-0.372238 -0.60629,-0.544257 -0.0761,-0.344037 0.006,-0.606296 0.18894,-1.122352 0.21996,-0.626036 0.49631,-1.404351 0.3666,-2.518244 l -2.15165,0.253798 c 0.0733,0.611936 -0.0733,1.023654 -0.25662,1.54253 -0.2115,0.600657 -0.47658,1.353592 -0.25944,2.320845"
     id="path36"
     style="stroke-width:1" />
  <path
     d="m 127.2542,83.654327 c 0,-0.386338 -0.0592,-0.834715 -0.2397,-1.370511 -0.50195,-1.47485 -1.02365,-2.044487 -1.62713,-2.701542 l -0.60629,-0.688076 -1.66661,1.381791 0.67961,0.769855 c 0.54426,0.592196 0.8178,0.891114 1.17312,1.934507 0.18612,0.549897 0.12972,0.837535 0.0479,1.271812 -0.10716,0.558356 -0.25662,1.322571 0.22278,2.402624 0.53015,1.190033 1.32257,1.483311 1.8499,1.677889 0.34968,0.12972 0.41172,0.152279 0.5358,0.414538 0.20868,0.451197 0.1833,0.580916 0.13254,0.814974 -0.0649,0.310198 -0.17484,0.829075 0.1269,1.508691 0.38634,0.879834 1.47767,2.955343 3.2458,3.214783 l 0.31583,-2.14319 c -0.43427,-0.06486 -1.12799,-0.916494 -1.57919,-1.942968 l -0.0169,-0.05076 0.0282,-0.143819 c 0.0451,-0.214319 0.0846,-0.442738 0.0846,-0.702176 0,-0.391977 -0.0874,-0.857274 -0.36941,-1.46921 -0.49914,-1.074413 -1.25208,-1.353591 -1.75121,-1.53689 -0.37224,-0.138179 -0.45966,-0.169199 -0.61758,-0.524517 -0.10716,-0.242518 -0.14664,-0.414537 -0.14664,-0.589376 0,-0.155099 0.031,-0.310198 0.0705,-0.521697 0.0536,-0.279178 0.11844,-0.609116 0.11844,-1.009553"
     id="path38"
     style="stroke-width:1" />
  <path
     d="m 141.41051,96.287845 c -2.12345,1.71737 -6.87794,1.84991 -9.39054,-0.43991 l -0.53016,-0.48222 -0.65141,0.30174 c -0.96726,0.44837 -2.25599,0.48503 -3.29092,0.51323 -1.31693,0.0367 -2.3575,0.0677 -2.89048,0.89958 -0.38634,0.60347 -0.34968,1.43819 0.10434,2.25316 0.0733,0.13536 0.16074,0.27072 0.25662,0.40608 h 4.72347 c -1.75685,0 -2.67899,-0.82907 -3.0202,-1.35359 0.27635,-0.0197 0.60629,-0.0338 0.88829,-0.0395 1.03775,-0.031 2.287,-0.0874 3.4714,-0.47658 1.29155,0.98418 2.86792,1.54817 4.47531,1.76249 1.16465,-1.37051 3.13018,-1.87247 4.28073,-1.87247 v 1.62149 c 0.89675,-0.23406 1.72301,-0.58091 2.4139,-1.02929 1.15056,0.49632 2.76359,1.47485 3.88594,2.154475 0.97571,0.59219 1.45793,0.88265 1.77941,1.00391 0.98135,0.37788 5.07596,0.71345 7.61113,0.71345 v -2.16574 c -2.8651,0 -6.2942,-0.377885 -6.82436,-0.569645 -0.17202,-0.0705 -0.87137,-0.4935 -1.42973,-0.83471 -1.45793,-0.88548 -3.45448,-2.09807 -4.82217,-2.56619 l -0.56117,-0.18611 -0.45966,0.37223"
     id="path40"
     style="stroke-width:1" />
  <path
     d="m 129.73579,99.728225 h -8.07925 c -3.63778,0 -4.02694,2.227795 -4.02694,3.008925 0,0.21714 0.0254,0.4935 0.10152,0.7896 h 3.28246 c -0.96443,0 -1.27181,-0.37788 -1.27181,-0.78114 0,-0.40326 0.36942,-0.84599 1.91477,-0.84599 h 12.96909 c 0.0705,-0.87984 0.38352,-1.59611 0.83472,-2.165755 h -5.72456"
     id="path42"
     style="stroke-width:1" />
  <path
     d="m 136.81394,101.89962 h 0.3102 l 6.47468,-1.51151 -3.69418,-0.654245 h -0.0677 v 0.18612 c -0.0282,0 -2.71,0.121265 -3.02584,1.973995"
     id="path44"
     style="stroke-width:1" />
  <path
     d="m 116.48187,103.53521 c -2.08678,0 -3.49113,1.6384 -3.49113,3.16965 0,1.46076 1.29719,3.22324 3.59829,3.22324 h 0.67398 c 0.1551,-0.83189 0.81779,-2.01628 3.28528,-2.15164 v -0.0141 h -3.94798 c -0.81215,0 -1.40999,-0.79524 -1.43255,-1.06032 0,-0.28199 0.3948,-1.00109 1.32539,-1.00109 h 14.06889 v -2.16574 h -14.06889"
     id="path46"
     style="stroke-width:1" />
  <path
     d="m 117.24327,109.90836 c -0.0338,0.17766 -0.0423,0.33558 -0.0423,0.46812 0,1.77659 1.56509,3.22324 4.22997,3.22324 h 0.0508 c 0.40608,-1.20131 1.88657,-2.04731 3.85491,-2.15447 v -0.0141 h -3.90567 c -1.34231,0 -2.07551,-0.69935 -2.07551,-1.05749 0,-0.30738 0.82908,-0.46812 1.64687,-0.46812 h 9.52308 v -2.16574 h -9.52308 c -0.1692,0 -0.32712,0.006 -0.48221,0.0141 -2.46749,0.13536 -3.13018,1.31975 -3.28528,2.15164"
     id="path48"
     style="stroke-width:1" />
  <path
     d="m 121.50144,113.60254 c -0.0733,0.21714 -0.11562,0.44556 -0.11562,0.68244 0,1.35923 1.21823,2.81998 3.93669,3.05968 1.96835,0.16355 10.46214,0.43145 12.01877,0.43145 1.26899,0 6.58747,-0.17202 9.45257,-1.00673 0.846,-0.24816 1.56509,-0.58092 2.25599,-0.9024 1.48895,-0.69371 3.02866,-1.40999 6.37316,-1.40999 v -2.16574 c -3.82672,0 -5.66816,0.85727 -7.28683,1.61021 -0.64578,0.29892 -1.2549,0.58373 -1.94861,0.78677 -2.40545,0.70218 -7.32631,0.91932 -8.84628,0.91932 -1.43819,0 -9.92634,-0.26508 -11.84111,-0.423 -1.37615,-0.11562 -1.9486,-0.64296 -1.9486,-0.89957 0.0479,-0.13254 0.71063,-0.68244 2.23342,-0.68244 h 8.71938 l -2.08678,-2.16575 h -6.6326 c -0.14382,0 -0.28764,0.006 -0.42864,0.0141 -1.97116,0.10716 -3.44883,0.95034 -3.85491,2.15165"
     id="path50"
     style="stroke-width:1" />
  <path
     d="m 135.54495,99.615425 c -0.031,0.0367 -0.062,0.0705 -0.0902,0.10716 -0.4512,0.569645 -0.76422,1.285915 -0.83472,2.165755 -0.008,0.12126 -0.0169,0.24251 -0.0169,0.36941 0,2.01347 1.06032,5.52717 8.16667,6.42674 l 0.27072,-2.14882 c -2.34341,-0.2961 -6.26036,-1.24644 -6.26036,-4.27792 0,-0.12972 0.0113,-0.25379 0.031,-0.36941 0.31866,-1.85837 2.99764,-1.973995 3.02584,-1.973995 v -2.16575 c -1.14773,0 -3.13018,0.50196 -4.28073,1.86965"
     id="path52"
     style="stroke-width:1" />
</svg>
