<?xml version="1.0" encoding="UTF-8" standalone="no"?>
<svg
   xmlns:dc="http://purl.org/dc/elements/1.1/"
   xmlns:cc="http://creativecommons.org/ns#"
   xmlns:rdf="http://www.w3.org/1999/02/22-rdf-syntax-ns#"
   xmlns:svg="http://www.w3.org/2000/svg"
   xmlns="http://www.w3.org/2000/svg"
   xmlns:sodipodi="http://sodipodi.sourceforge.net/DTD/sodipodi-0.dtd"
   xmlns:inkscape="http://www.inkscape.org/namespaces/inkscape"
   height="200"
   width="200"
   viewBox="0 0 743.038 743.038"
   version="1.1"
   id="svg24"
   sodipodi:docname="environmentdanger.svg"
   inkscape:version="1.0.1 (c497b03c, 2020-09-10)">
  <metadata
     id="metadata30">
    <rdf:RDF>
      <cc:Work
         rdf:about="">
        <dc:format>image/svg+xml</dc:format>
        <dc:type
           rdf:resource="http://purl.org/dc/dcmitype/StillImage" />
        <dc:title></dc:title>
      </cc:Work>
    </rdf:RDF>
  </metadata>
  <defs
     id="defs28">
    <filter
       style="color-interpolation-filters:sRGB"
       inkscape:label="Drop Shadow"
       id="filter214">
      <feFlood
         flood-opacity="1"
         flood-color="rgb(0,0,0)"
         result="flood"
         id="feFlood204" />
      <feComposite
         in="flood"
         in2="SourceGraphic"
         operator="in"
         result="composite1"
         id="feComposite206" />
      <feGaussianBlur
         in="composite1"
         stdDeviation="10.8108"
         result="blur"
         id="feGaussianBlur208" />
      <feOffset
         dx="6"
         dy="6"
         result="offset"
         id="feOffset210" />
      <feComposite
         in="SourceGraphic"
         in2="offset"
         operator="over"
         result="composite2"
         id="feComposite212" />
    </filter>
  </defs>
  <sodipodi:namedview
     pagecolor="#ffffff"
     bordercolor="#666666"
     borderopacity="1"
     objecttolerance="10"
     gridtolerance="10"
     guidetolerance="10"
     inkscape:pageopacity="0"
     inkscape:pageshadow="2"
     inkscape:window-width="1920"
     inkscape:window-height="1035"
     id="namedview26"
     showgrid="false"
     inkscape:zoom="0.43510508"
     inkscape:cx="751.90459"
     inkscape:cy="460.36039"
     inkscape:window-x="1920"
     inkscape:window-y="57"
     inkscape:window-maximized="1"
     inkscape:current-layer="svg24"
     inkscape:document-rotation="0"
     scale-x="3.71519" />
  <path
     d="M 369.38869,670.3 64.7,367.5 369.38869,64.7 674.07738,367.5 Z"
     fill="#fff"
     id="path12"
     style="fill:#808080;stroke-width:1.00311" />
  <g
     stroke="#000000"
     stroke-width="5"
     id="g20"
     style="fill:#e6e6e6">
    <path
       d="M 223.7,367.2 H 504.9"
       id="path14"
       style="fill:#e6e6e6" />
    <path
       stroke-width="4"
       d="m 462.7,418 32.98,23.79 -31.36,15.1 42.2,3.79 -11.36,15.1 h 23.3 l 0.54,16.76 -294.2,-1.605 c 0,0 49.2,-14.58 57.3,-8.635 10.82,-4.87 89.8,-38.4 89.8,-36.2 m -75.72,-25.98 1.62,-85.4 -42.72,-23.2 c 0,0 -6.49,-4.33 -15.68,-1.62 -3.25,1.08 -7.57,2.16 -7.57,2.16 0,0 23.3,-19.47 27.58,-17.84 4.33,1.62 34.61,16.22 34.61,16.22 0,0 -3.25,-22.71 -11.36,-29.2 -8.11,-6.49 -39.47,-31.36 -39.47,-31.36 v -5.95 l 42.72,25.96 c 0,0 1.62,-24.87 -7,-39.47 -8.65,-14.6 -15.1,-27.58 -15.1,-27.58 l 2.7,-2.16 21.1,32.44 7,-22.2 4.33,-1.08 c 0,0 -5.41,31.36 -1.62,41.1 3.79,9.73 17.84,62.73 17.84,62.73 l 21.1,-30.3 c 0,0 0.54,-12.44 -0.54,-21.1 -1.08,-8.65 -2.7,-48.67 -2.7,-48.67 h 3.79 l 5.95,43.8 34.1,-39.47 v 4.33 c 0,0 -33.51,42.2 -31.89,51.4 1.62,9.19 3.24,14.6 -2.7,27.58 -5.94,12.98 -9.73,22.2 -9.73,22.2 0,0 17.84,-21.1 25.96,-22.71 8.11,-0.54 18.91,0.54 26.48,-5.95 7.57,-6.49 25.96,-27 25.96,-27 l -28.66,44.3 c 0,0 -13.51,0.54 -18.91,6.49 -5.41,5.95 -27.58,31.36 -27.58,31.36 v 58.4 l 36.76,18.38 -44.87,6.49 -10.82,15.68 -14.6,-12.44 -40.62,3.735 z"
       id="path16"
       style="fill:#e6e6e6" />
    <path
       fill="#fff"
       d="m 355.2,445.1 c 10.29,-4.29 27,-11.36 36.76,-25.42 10.1,-14.54 45.96,-75.7 95.2,-70.8 -2.7,6.49 -11.36,20.55 -11.36,20.55 l 35.1,-10.82 c 0,0 0.54,46.5 -65.97,76.2 -30.82,10.82 -37.3,11.36 -40,15.1 -2.7,3.79 -15.1,22.71 -15.1,22.71 l -55.14,-24.3 c 0,0 14.06,-0.515 20.51,-3.215 z"
       id="path18"
       style="fill:#e6e6e6" />
  </g>
  <ellipse
     cy="385.79999"
     cx="484.29999"
     rx="5.9499998"
     ry="5.1300001"
     id="ellipse22" />
  <path
     d="M 147.65941,148.01233 6,289.67173 147.66886,431.34059 289.32827,573 431.01602,431.31224 572.70378,289.62449 431.06327,147.98398 C 353.16571,70.086424 289.40386,6.34347 289.37551,6.34347 c -0.0284,0 -63.79965,63.752403 -141.7161,141.66886 z M 408.62189,170.42535 527.82103,289.62449 408.57465,408.87087 289.31882,528.1267 170.12913,408.87087 50.948893,289.60559 170.13858,170.41591 C 235.69574,104.85874 289.34716,51.22622 289.37551,51.22622 c 0.0283,0 53.68922,53.64197 119.24638,119.19913 z"
     style="fill:#ff0000;stroke:none"
     id="path12-7"
     transform="matrix(1.2779578,0,0,1.2739946,-0.41053521,-1.4559578)" />
</svg>
