<?xml version="1.0" encoding="UTF-8" standalone="no"?>
<svg
   xmlns:dc="http://purl.org/dc/elements/1.1/"
   xmlns:cc="http://creativecommons.org/ns#"
   xmlns:rdf="http://www.w3.org/1999/02/22-rdf-syntax-ns#"
   xmlns:svg="http://www.w3.org/2000/svg"
   xmlns="http://www.w3.org/2000/svg"
   xmlns:sodipodi="http://sodipodi.sourceforge.net/DTD/sodipodi-0.dtd"
   xmlns:inkscape="http://www.inkscape.org/namespaces/inkscape"
   version="1.0"
   width="200"
   height="200"
   viewBox="0 0 150.00001 150"
   id="svg16"
   sodipodi:docname="explosive.svg"
   inkscape:version="1.0.1 (c497b03c, 2020-09-10)">
  <metadata
     id="metadata22">
    <rdf:RDF>
      <cc:Work
         rdf:about="">
        <dc:format>image/svg+xml</dc:format>
        <dc:type
           rdf:resource="http://purl.org/dc/dcmitype/StillImage" />
        <dc:title></dc:title>
      </cc:Work>
    </rdf:RDF>
  </metadata>
  <defs
     id="defs20" />
  <sodipodi:namedview
     pagecolor="#ffffff"
     bordercolor="#666666"
     borderopacity="1"
     objecttolerance="10"
     gridtolerance="10"
     guidetolerance="10"
     inkscape:pageopacity="0"
     inkscape:pageshadow="2"
     inkscape:window-width="1920"
     inkscape:window-height="1035"
     id="namedview18"
     showgrid="false"
     units="px"
     inkscape:zoom="2.3082902"
     inkscape:cx="261.53463"
     inkscape:cy="145.46469"
     inkscape:window-x="1920"
     inkscape:window-y="57"
     inkscape:window-maximized="1"
     inkscape:current-layer="svg16" />
  <path
     d="M 5.5852288,74.845153 75.470606,144.73636 145.36764,74.8335 C 122.06118,51.551671 98.800771,28.223708 75.482261,4.9539503 Z"
     style="fill:#ffffff;stroke:none;stroke-width:0.999998"
     id="path10" />
  <path
     d="M 37.972056,37.346406 0.47643089,74.845155 37.974558,112.34641 75.470183,149.84516 112.97331,112.3389 150.47644,74.83265 112.98581,37.338902 C 92.367223,16.718591 75.490191,-0.15484672 75.482687,-0.15484672 c -0.0075,0 -16.887038,16.87593872 -37.510631,37.50125272 z M 107.04584,43.279371 138.59649,74.83265 107.03083,106.40093 75.467682,137.96672 43.919534,106.39843 12.371388,74.830149 43.922035,43.276872 c 17.352231,-17.35368 31.553148,-31.550778 31.560652,-31.550778 0.0075,0 14.210922,14.1996 31.563153,31.553277 z"
     style="fill:#ff0000;stroke:none;stroke-width:0.999998"
     id="path12" />
  <path
     d="m 82.212255,34.497503 c -0.01853,0.0024 -0.03131,0.02205 -0.04632,0.05956 -0.01251,0.03752 -2.400793,6.845684 -5.307006,15.13483 -2.90621,8.289146 -5.290383,15.082616 -5.300388,15.095124 -0.03001,0.03001 -0.240718,-0.04601 -0.23822,-0.08603 0.0025,-0.02751 6.210591,-19.345707 6.273119,-19.515791 0.0075,-0.02001 -0.178188,-0.145483 -0.555846,-0.370595 -0.562736,-0.335169 -0.628635,-0.370907 -0.628635,-0.330888 0,0.03502 -5.171273,20.194032 -5.181279,20.204038 -0.005,0.0075 -0.14594,-0.02528 -0.311009,-0.07279 -0.395167,-0.112558 -1.066927,-0.249392 -1.502107,-0.304417 -0.487705,-0.06003 -1.597919,-0.06253 -2.038102,0 -2.055857,0.287642 -3.721555,1.138123 -5.174661,2.633871 -1.020425,1.050525 -1.832911,2.412906 -2.263087,3.798597 -0.05252,0.165084 -0.102488,0.307647 -0.112493,0.317653 -0.01002,0.01001 -0.799781,-0.567601 -1.760179,-1.290464 -0.960402,-0.722862 -1.755177,-1.311205 -1.760179,-1.3037 -0.005,0.005 0.0917,0.203268 0.211751,0.44339 l 0.218368,0.436773 1.508725,1.012518 c 1.458108,0.977989 1.501377,1.013661 1.488873,1.078695 -0.01251,0.06253 0.03641,0.123019 0.456588,0.575746 0.257607,0.280141 0.5411,0.582464 0.628635,0.675012 l 0.165431,0.165444 0.443353,-0.02647 0.443353,-0.02647 0.833769,0.555893 c 0.457691,0.302651 0.803497,0.524733 0.76098,0.489714 -0.04002,-0.03502 -0.37186,-0.289874 -0.734511,-0.56251 -0.36015,-0.270134 -0.639524,-0.493831 -0.622018,-0.496332 0.01751,-0.0024 0.595951,-0.03528 1.283739,-0.0728 l 1.250654,-0.06618 1.799882,0.906634 c 0.995417,0.495247 1.818846,0.900016 1.826351,0.900016 0.0075,0 0.459702,-0.539099 1.012434,-1.204434 0.552731,-0.66283 1.021397,-1.22413 1.038902,-1.24414 0.02751,-0.03252 -0.04496,-0.221753 -0.430119,-1.164726 -0.252606,-0.617809 -0.454974,-1.126635 -0.44997,-1.131638 0.005,-0.0024 0.635028,0.06305 1.402849,0.14559 0.767819,0.08254 1.399463,0.146478 1.409467,0.138974 0.0075,-0.01001 0.108323,-0.391846 0.218368,-0.847074 l 0.205133,-0.833839 0.622018,-0.0066 c 0.342645,-0.0024 0.717836,0.0032 0.840386,0.01324 l 0.224986,0.01985 -2.130743,2.329454 c -1.17549,1.278139 -2.156168,2.353995 -2.183681,2.389013 -0.09504,0.112555 0.752084,-0.736253 2.73291,-2.739755 l 1.952078,-1.978712 0.727893,-0.01323 0.721277,-0.01324 -0.125728,-0.185297 c -0.07253,-0.102552 -0.209353,-0.28201 -0.304391,-0.397066 -0.09504,-0.115057 -0.167932,-0.214998 -0.165431,-0.225004 0.005,-0.01001 0.277032,-0.293519 0.602167,-0.628688 l 0.588932,-0.602217 0.06617,0.138973 c 0.03501,0.08004 0.05956,0.152937 0.05956,0.165444 0,0.04002 0.03276,0.02757 1.025668,-0.430154 0.512714,-0.235119 0.942873,-0.416189 0.952879,-0.403684 0.01002,0.01001 0.104209,0.330412 0.211751,0.708101 0.105045,0.377689 0.201745,0.698095 0.21175,0.708101 0.01751,0.02001 3.042405,-2.422936 3.129943,-2.527987 0.02001,-0.02751 0.396084,-0.71168 0.833768,-1.522086 0.437681,-0.812905 0.825225,-1.521617 0.860238,-1.581646 0.03502,-0.06003 0.05059,-0.110887 0.03309,-0.105884 -0.01501,0.005 -0.637687,0.520445 -1.382997,1.138256 l -1.356529,1.118402 -0.972731,0.02647 c -0.537722,0.01252 -1.016236,0.01824 -1.058754,0.01324 -0.07253,-0.0075 0.465071,-0.554633 9.098669,-9.27149 5.044602,-5.092548 9.178083,-9.268104 9.178083,-9.278108 0,-0.01001 -0.23926,-0.255011 -0.52938,-0.542657 -0.49521,-0.495247 -0.52907,-0.519002 -0.56908,-0.476479 -0.0225,0.0225 -4.219035,4.591372 -9.323659,10.151653 l -9.277334,10.111946 -0.73451,0.516186 c -0.402668,0.282639 -0.745971,0.52765 -0.76098,0.542657 -0.01751,0.01752 0.0021,0.0817 0.05956,0.211768 0.07003,0.165082 0.07633,0.194104 0.04632,0.231622 -0.02751,0.03502 -0.992785,1.099483 -1.177864,1.297082 -0.04502,0.04753 -0.0471,0.04466 -0.264688,-0.165444 -0.422676,-0.417708 -0.822504,-0.739411 -1.310209,-1.072078 l -0.238219,-0.165444 4.598963,-7.901613 c 3.626511,-6.230613 4.590888,-7.905572 4.565878,-7.928083 -0.01501,-0.01752 -0.252649,-0.165807 -0.52276,-0.330888 l -0.496291,-0.304418 -0.08602,0.152209 c -0.04502,0.08504 -1.908944,3.767351 -4.142376,8.179558 -2.303459,4.55728 -4.069429,8.020733 -4.089438,8.020733 -0.02501,0 -0.02178,-0.0298 0.01323,-0.132356 0.02751,-0.07003 2.467382,-6.874972 5.426115,-15.121594 2.961234,-8.246623 5.378181,-15.000702 5.373177,-15.015711 -0.01,-0.0225 -1.808318,-0.863068 -1.998398,-0.933105 -0.0075,-0.0024 -0.01368,-7.94e-4 -0.01984,0 z m -9.125138,11.548001 -0.258071,0.641924 -0.251454,0.648541 -0.489674,-0.191916 c -0.272614,-0.107554 -0.502021,-0.188683 -0.509525,-0.178679 -0.0075,0.01001 -0.123015,0.551606 -0.258072,1.204433 -0.132554,0.652827 -0.243951,1.208394 -0.251454,1.230905 -0.0075,0.03001 0.102742,0.09035 0.502909,0.277946 0.287621,0.135066 0.530105,0.254704 0.542611,0.26471 0.01,0.01001 0.132861,0.451665 0.277923,0.97943 0.142559,0.525262 0.266302,0.961193 0.271306,0.966193 0.005,0.005 0.208985,-0.285858 0.456588,-0.648541 0.470199,-0.687842 0.468958,-0.685558 1.952078,-2.296364 l 0.07941,-0.08603 -0.430119,-1.389731 -0.430119,-1.389731 -0.185282,-0.01323 c -0.102542,-0.01001 -0.372069,-0.01734 -0.602166,-0.01985 z m 34.105123,6.174376 c -0.01,0 -0.0256,0.02954 -0.0331,0.05956 -0.0775,0.257627 -0.87009,2.709895 -0.88009,2.719901 -0.005,0.0075 -0.54083,0.03616 -1.1911,0.06618 l -1.18448,0.05294 -0.33748,0.251475 c -0.18507,0.142571 -0.33909,0.262212 -0.34409,0.264711 -0.008,0.0075 -0.32263,2.024152 -0.31763,2.031654 0.01,0.0075 1.84532,1.058842 1.85282,1.058842 0.005,0 0.33846,-0.354796 0.74113,-0.787514 0.40517,-0.432714 0.74024,-0.790015 0.74774,-0.787514 0.007,0 0.67031,0.451509 1.47564,0.999283 l 1.46241,0.992665 0.007,-0.363977 c 0.002,-0.2001 0.002,-1.016256 -0.0132,-1.80665 l -0.0265,-1.436056 -0.97273,-1.661059 c -0.53522,-0.910456 -0.97596,-1.654441 -0.98596,-1.654441 z m -24.887344,1.012518 -0.04632,0.05956 c -0.02501,0.03252 -0.174913,0.248865 -0.337478,0.476479 l -0.291158,0.410301 -0.185282,0.926488 c -0.100041,0.510253 -0.185282,0.951918 -0.185282,0.979429 0.0025,0.03502 0.21242,0.23276 0.655105,0.615452 0.360152,0.310156 0.659947,0.56251 0.674955,0.56251 0.01251,0 0.238684,-0.25647 0.496291,-0.569128 l 0.469823,-0.575745 0.105875,-0.516186 c 0.05752,-0.282642 0.117338,-0.579234 0.132344,-0.661777 l 0.02647,-0.152208 -0.28454,-0.767661 c -0.155065,-0.42021 -0.29027,-0.77089 -0.297775,-0.780896 -0.01002,-0.01001 -0.115666,0.09494 -0.238219,0.225004 l -0.218368,0.238239 -0.23822,-0.238239 z m 15.292385,1.369877 c -0.0125,0 -5.526394,3.882191 -12.261701,8.629567 -6.735307,4.749875 -12.246847,8.637799 -12.241845,8.642802 0.0025,0.005 5.525507,-3.412602 12.268314,-7.597195 l 12.255082,-7.610431 v -1.038989 c 0,-0.567786 -0.01,-1.028255 -0.0198,-1.025754 z m -2.4219,6.750121 -0.4963,0.555893 -0.502903,0.549274 -0.23822,0.641924 c -0.132554,0.352676 -0.24072,0.643538 -0.23822,0.648541 0.01,0.01001 4.370593,0.532809 4.380593,0.522803 0.005,-0.0024 -0.64883,-0.664627 -1.44917,-1.462526 z m 20.109709,0.383831 c -0.0125,-0.0024 -9.72541,2.508856 -21.585352,5.585394 -11.859942,3.076539 -21.563884,5.600245 -21.558882,5.605248 0.0075,0.0075 43.735514,-9.898407 43.753014,-9.913413 0.015,-0.01001 -0.58877,-1.272229 -0.60878,-1.277229 z m -25.410101,2.964759 c -0.01251,0.0024 -3.244652,1.524866 -7.186294,3.388296 -3.941643,1.863433 -7.186138,3.399761 -7.206146,3.414767 -0.02751,0.02001 -0.01855,0.02163 0.02647,0.0066 0.08754,-0.03002 14.489199,-5.587009 14.491698,-5.592012 0.0025,0 -0.01631,-0.273669 -0.04632,-0.608835 -0.03001,-0.367685 -0.0619,-0.608834 -0.07941,-0.608834 z m 31.246481,1.502233 c -0.0325,0.0024 -10.68921,1.810883 -23.689619,4.016984 -12.997921,2.203602 -23.667849,4.010366 -23.702864,4.010366 -0.04252,0.0024 -0.151516,-0.07243 -0.344095,-0.225004 l -0.291157,-0.231622 -0.01324,0.959576 -0.01323,0.959576 -0.747745,0.509568 c -0.412673,0.277639 -0.763324,0.500449 -0.780832,0.50295 -0.01751,0 -0.333772,-0.211345 -0.701424,-0.476479 -0.975407,-0.705353 -0.989944,-0.703008 -0.05956,0.01985 0.350147,0.272639 0.651716,0.499562 0.661721,0.509568 0.02501,0.0225 -1.175935,0.833111 -1.21095,0.820603 -0.01751,-0.005 -2.968717,-2.519741 -3.699022,-3.150056 l -0.165431,-0.145591 -1.369763,1.18458 c -0.75281,0.652827 -1.37961,1.191198 -1.389615,1.191198 -0.01251,0 -0.787588,-0.202385 -1.720475,-0.450008 l -1.694007,-0.450008 0.476439,0.01324 c 0.262609,0.0075 0.659111,0.01234 0.886707,0.01985 0.392662,0.01001 -0.726515,-0.07378 -2.064571,-0.158826 -0.247602,-0.01752 -1.589668,-0.108489 -2.977746,-0.198533 l -2.527776,-0.165444 -0.0066,-0.0728 c -0.01501,-0.08504 -0.0049,-0.08166 -0.224986,-0.0066 -0.157565,0.05253 -0.180636,0.04987 -0.668338,0.01985 -0.275115,-0.01501 -0.560221,-0.03221 -0.635253,-0.03971 l -0.138961,-0.01985 -0.11911,-0.218386 -0.11911,-0.211769 -0.85362,-0.04632 c -0.470195,-0.02501 -0.915937,-0.03971 -0.985965,-0.03971 h -0.125727 l -0.112493,0.17868 -0.105875,0.185297 -0.125738,-0.01323 c -0.07003,-0.0024 -2.687728,-0.169608 -5.816531,-0.377213 -3.128805,-0.205103 -5.730922,-0.373096 -5.783445,-0.370595 l -0.09264,0.0066 0.291158,0.311035 c 0.252606,0.275138 0.299648,0.316766 0.377181,0.324271 0.05002,0.005 2.525167,0.104944 5.498905,0.225004 2.973739,0.120059 5.41861,0.224117 5.426115,0.231622 0.0075,0.0075 -0.112124,0.217234 -0.264689,0.469861 -0.150063,0.250125 -0.270575,0.470589 -0.258071,0.483097 0.01,0.01001 0.373007,0.268091 0.800683,0.575745 l 0.774214,0.56251 0.85362,0.138974 c 0.467694,0.08004 0.869197,0.139859 0.886707,0.132355 0.01751,-0.005 0.146097,-0.201657 0.291157,-0.436773 l 0.264689,-0.430154 h 0.542611 0.542612 v -0.09265 c 0,-0.05253 -0.0188,-0.350006 -0.04632,-0.655159 -0.02751,-0.307655 -0.04721,-0.561626 -0.0397,-0.569128 0.01501,-0.01501 5.401053,0.191759 5.538608,0.211769 0.06503,0.01001 0.07941,0.01776 0.07941,0.07279 0,0.09255 0.131561,0.673961 0.231602,1.019136 0.08504,0.290144 0.08561,0.291912 0.03309,0.304417 -0.02751,0.005 -6.654939,0.764569 -14.7233,1.687531 -8.068362,0.925462 -14.667862,1.68753 -14.670363,1.68753 -0.0075,0.005 -0.06044,0.647657 -0.05294,0.655159 0.005,0.0024 6.629929,-0.892284 14.723301,-1.98533 8.093371,-1.093049 14.733877,-1.98533 14.756386,-1.98533 0.02751,0 0.06175,0.05377 0.09926,0.158827 0.03251,0.08754 0.10629,0.266113 0.158813,0.403683 0.05252,0.135066 0.09103,0.248976 0.08602,0.251475 -0.005,0.0024 -4.958522,1.099669 -11.011043,2.435338 -6.052521,1.335669 -11.023239,2.442686 -11.050747,2.455191 -0.04252,0.01752 -0.0682,0.08207 -0.125727,0.377213 -0.04002,0.195097 -0.06044,0.36309 -0.05294,0.370595 0.01251,0.01001 22.186734,-5.452727 22.286776,-5.492746 0.01501,-0.005 0.06336,0.06466 0.105875,0.152209 0.05502,0.110053 0.06633,0.164557 0.04632,0.172062 -0.01751,0.005 -1.688027,0.456512 -3.718874,0.999282 l -3.699023,0.97943 -0.04632,0.377212 c -0.02751,0.207602 -0.04882,0.381329 -0.04632,0.383831 0.0025,0.0024 1.727991,-0.562029 3.831367,-1.257376 3.836597,-1.265634 3.861952,-1.273896 3.864453,-1.171344 0,0.01501 -2.694707,1.481667 -5.988579,3.262558 l -5.995195,3.236088 0.01984,0.238239 c 0.01,0.130066 0.01647,0.278362 0.02647,0.330889 l 0.01984,0.09265 5.948896,-3.500777 c 3.273863,-1.925963 5.972687,-3.517263 5.995196,-3.527269 0.03251,-0.02001 0.07977,0.0409 0.244837,0.311035 0.187579,0.310154 0.441316,0.671621 0.701424,0.999283 0.100042,0.130065 0.106191,0.148667 0.06617,0.178679 -0.02251,0.01501 -3.176034,2.532982 -7.007629,5.592013 l -6.961309,5.565541 0.489674,0.483096 c 0.272614,0.265135 0.515986,0.490446 0.535994,0.502951 0.03001,0.01752 0.960894,-0.831541 4.162228,-3.765509 2.270945,-2.08354 4.130757,-3.781243 4.135758,-3.778744 0.005,0.005 -0.03027,0.0804 -0.07279,0.165444 -0.04252,0.08254 -0.07279,0.159557 -0.07279,0.172062 0,0.01752 0.686938,0.794492 0.847003,0.959576 0.04252,0.04252 0.06491,0.03643 0.542612,-0.17868 l 0.496291,-0.225004 0.251454,0.251475 0.251454,0.244857 0.496291,-0.297799 0.502908,-0.304417 0.191899,-0.641923 c 0.107546,-0.355179 0.189399,-0.661621 0.191899,-0.68163 0,-0.0225 -0.188974,-0.156688 -0.456587,-0.324271 l -0.449971,-0.284564 -0.727893,-0.01324 -0.721277,-0.01324 1.780031,-1.634588 c 0.977908,-0.895447 1.781646,-1.62797 1.786648,-1.62797 0.0025,0 0.203255,0.192534 0.443353,0.430154 0.2401,0.237618 0.55063,0.525252 0.68819,0.635306 1.668194,1.335669 3.563928,1.983299 5.60478,1.92577 1.603166,-0.04502 3.029147,-0.497669 4.387213,-1.383113 0.560235,-0.365182 0.912487,-0.651241 1.422701,-1.151492 l 0.317626,-0.304417 4.757777,3.831687 c 2.621092,2.111056 4.766011,3.834187 4.771011,3.831686 0.0025,-0.005 -0.121973,-0.301598 -0.28454,-0.661777 l -0.291158,-0.655158 -4.420298,-3.242706 -4.420299,-3.236087 0.08602,-0.105884 c 0.04752,-0.05503 0.17538,-0.215673 0.277923,-0.350742 0.105045,-0.132564 0.201745,-0.240741 0.21175,-0.238239 0.01252,0.005 2.680171,2.087047 5.929024,4.625818 3.248853,2.538768 5.946789,4.645356 6.001813,4.685378 l 0.09926,0.07279 0.28454,-0.284564 c 0.157566,-0.157579 0.287041,-0.294411 0.28454,-0.304417 -0.005,-0.0075 -2.788178,-2.028115 -6.187095,-4.486845 -3.396417,-2.458728 -6.197671,-4.484187 -6.22018,-4.506698 -0.04001,-0.03752 -0.03257,-0.05695 0.112492,-0.284564 0.09754,-0.152577 0.165274,-0.239127 0.185282,-0.231622 0.01751,0.0075 2.54262,1.547064 5.611397,3.428002 3.066278,1.87844 5.584044,3.406535 5.591546,3.401532 0.005,-0.0075 -0.127701,-0.292635 -0.297775,-0.635305 l -0.311009,-0.62207 -5.254067,-2.885346 -5.254068,-2.885346 0.178665,-0.350742 c 0.100041,-0.192574 0.223786,-0.437582 0.271305,-0.542636 l 0.08602,-0.191915 3.255669,0.840457 c 1.790748,0.462732 3.258899,0.850303 3.268904,0.860309 0.02001,0.02001 -0.229673,0.370595 -0.264689,0.370595 -0.01251,0 -0.455016,-0.08363 -0.97273,-0.17868 -0.520217,-0.09755 -0.959339,-0.172062 -0.979348,-0.172062 -0.02751,0 -0.137551,0.175286 -0.317626,0.502951 l -0.277923,0.509568 0.655104,0.483096 c 0.360148,0.267633 0.814851,0.602736 1.012434,0.747808 l 0.35733,0.264711 2.66012,0.456625 c 1.460606,0.250125 2.661733,0.448391 2.666737,0.443391 0.0075,-0.0075 0.0544,-0.684801 0.07941,-1.12502 l 0.0066,-0.152209 -0.436736,-0.50295 -0.436736,-0.496333 -0.542612,-0.231621 c -0.300125,-0.127565 -0.538495,-0.235741 -0.535994,-0.23824 0.0025,-0.0024 1.702563,0.430925 3.778429,0.966194 2.075865,0.535266 3.791507,0.972811 3.811515,0.972811 0.01751,0 0.02647,-0.0074 0.02647,-0.01985 0,-0.01001 0.07539,-0.521332 0.16543,-1.131638 0.09004,-0.610306 0.161314,-1.106784 0.158813,-1.111785 -0.005,-0.0024 -3.827057,-0.544988 -8.496502,-1.197815 -4.666944,-0.652827 -8.491503,-1.192813 -8.496503,-1.197816 -0.005,-0.005 0.04497,-0.178727 0.112493,-0.38383 0.07003,-0.205101 0.125727,-0.387791 0.125727,-0.410302 0,-0.02751 -0.182406,-0.101244 -0.655104,-0.271328 L 75.62151,76.255605 75.489166,76.023983 c -0.07253,-0.122561 -0.126614,-0.230738 -0.11911,-0.238239 0.005,-0.0075 3.677159,0.164605 8.159025,0.377212 l 8.14579,0.383831 0.06617,0.06618 0.06617,0.0728 1.475639,0.09927 1.469021,0.09927 0.086,-0.09265 0.086,-0.09265 10.415499,0.496333 c 5.72988,0.270134 10.41961,0.485598 10.42211,0.483097 0.005,-0.005 -0.19252,-0.154917 -0.43012,-0.337506 l -0.43012,-0.337507 -9.81333,-0.304417 c -5.397246,-0.172586 -9.826399,-0.315151 -9.846409,-0.317653 -0.02,-0.005 0.27536,-0.360943 0.70804,-0.853691 0.41017,-0.465232 0.73951,-0.851191 0.73451,-0.853692 -0.002,-0.005 -1.18231,-0.529408 -2.62042,-1.164727 -1.438097,-0.635319 -2.617029,-1.163842 -2.627034,-1.171344 -0.01,-0.005 -0.336114,0.294093 -0.721276,0.661776 l -0.701425,0.668395 -0.992582,0.330888 c -0.542728,0.182592 -0.994198,0.336619 -0.999199,0.344124 -0.0075,0.005 0.09082,0.409772 0.218368,0.900016 0.127552,0.490247 0.219255,0.903248 0.211751,0.913251 -0.01,0.0075 -2.957041,-0.08348 -6.551042,-0.198533 -3.591495,-0.112557 -6.541036,-0.201034 -6.551041,-0.198532 -0.01,0 -0.06732,-0.09098 -0.132345,-0.198533 -0.112547,-0.185094 -0.138635,-0.212542 -0.813917,-0.747808 l -0.701425,-0.549275 0.132345,-0.01985 c 0.07253,-0.01001 10.751422,-1.459469 23.729332,-3.222852 l 23.596979,-3.202998 0.0132,-0.807368 v -0.807367 h -0.0529 z m -66.569168,3.891246 c -8.47e-4,0.0053 0.0029,0.01459 0.0066,0.02647 0.01,0.02751 0.05424,0.149654 0.09926,0.264711 l 0.08603,0.20515 3.910773,1.886064 c 2.148395,1.035519 3.912391,1.875329 3.917391,1.872827 0.0025,-0.005 -1.741797,-0.938293 -3.877687,-2.07136 -2.133388,-1.133068 -3.941617,-2.090899 -4.016649,-2.130921 -0.09191,-0.05252 -0.1235,-0.06901 -0.125727,-0.05294 z m -3.434334,2.289747 c -0.0075,0 -0.174597,0.142565 -0.377181,0.317653 -0.202585,0.175087 -0.360716,0.323383 -0.350713,0.330888 0.02501,0.02001 11.657756,1.834895 11.672765,1.819886 0.01,-0.0075 -10.902354,-2.470929 -10.944871,-2.468427 z m 11.024278,2.475044 c -0.02751,-0.0024 -0.04309,0.0057 -0.03309,0.01324 0.0075,0.0075 0.02882,0.0075 0.04632,0 0.02001,-0.0075 0.01427,-0.01324 -0.01323,-0.01324 z m -9.674367,0.569128 0.172048,0.01324 c 0.09254,0.01001 0.204818,0.01734 0.244837,0.01985 0.06252,0 0.05476,0.01202 -0.07279,0.05956 -0.260109,0.10005 -0.247755,0.10005 -0.297775,0 z m 38.459247,0.330889 c 0.01501,0 0.134633,0.111403 0.264688,0.251475 l 0.231603,0.258092 -0.423502,-0.01985 c -0.235098,-0.01001 -0.695532,-0.02308 -1.025668,-0.03309 -0.330139,-0.0075 -0.582472,-0.02557 -0.562463,-0.03309 0.06503,-0.0225 1.490332,-0.421036 1.515342,-0.423537 z m -28.864287,0.05294 c -0.006,0.0024 -0.005,0.0095 0,0.01324 0.0075,0.0075 0.02881,0.0075 0.04632,0 0.02001,-0.0075 0.0077,-0.01324 -0.01984,-0.01324 -0.01376,-0.0013 -0.02052,-0.0024 -0.02647,0 z m -19.064192,0.754425 c -0.01,-0.0024 -0.360657,0.253971 -0.780832,0.569128 l -0.760979,0.56251 -0.0066,0.304417 c -0.0075,0.297649 -0.0087,0.307647 0.04632,0.317653 0.09254,0.02001 4.173533,0.391335 4.208548,0.38383 0.02501,-0.0075 -2.656421,-2.125033 -2.70644,-2.137538 z m 5.075403,4.877293 c 0,0.0225 1.530035,1.495615 1.555045,1.495615 0.01501,0 0.269842,-0.100828 0.562463,-0.218386 l 0.529377,-0.211768 v -0.463244 -0.463244 h -0.06617 c -0.08754,0 -2.230935,-0.117346 -2.428518,-0.132355 -0.08754,-0.0075 -0.152195,-0.01162 -0.152195,-0.0066 z m -5.618015,3.891247 c -0.0075,0 -0.02147,0.01808 -0.02647,0.03309 -0.0075,0.01752 -0.126246,0.418161 -0.271306,0.893399 l -0.264688,0.866927 0.07941,0.112502 c 0.432682,0.602802 1.506955,2.066358 1.52196,2.071361 0.01,0.0024 0.05997,-0.117137 0.112492,-0.264711 0.05252,-0.150075 0.162301,-0.458132 0.244837,-0.688247 l 0.145579,-0.41692 0.09264,-0.01323 c 0.05252,-0.0075 0.266353,-0.02308 0.476439,-0.03309 l 0.377181,-0.01324 0.297775,-0.32427 0.297775,-0.317653 0.158813,-0.483097 c 0.08504,-0.26263 0.143963,-0.478094 0.138961,-0.483097 -0.01501,-0.01501 -1.408424,-0.536039 -1.435935,-0.536039 -0.01501,0 -0.116554,0.11552 -0.231603,0.258093 -0.115046,0.145072 -0.227329,0.256478 -0.244837,0.251475 -0.01501,-0.005 -0.348463,-0.209002 -0.741127,-0.456626 C 42.791268,85.54168 42.463537,85.33518 42.456037,85.33518 Z"
     style="fill:#000000;stroke:none;stroke-width:0.799997"
     id="path14" />
</svg>
