<?xml version="1.0" encoding="UTF-8" standalone="no"?>
<svg
   xmlns:dc="http://purl.org/dc/elements/1.1/"
   xmlns:cc="http://creativecommons.org/ns#"
   xmlns:rdf="http://www.w3.org/1999/02/22-rdf-syntax-ns#"
   xmlns:svg="http://www.w3.org/2000/svg"
   xmlns="http://www.w3.org/2000/svg"
   xmlns:sodipodi="http://sodipodi.sourceforge.net/DTD/sodipodi-0.dtd"
   xmlns:inkscape="http://www.inkscape.org/namespaces/inkscape"
   version="1.0"
   width="200"
   height="200"
   viewBox="0 0 150.00001 150.00001"
   id="svg16"
   sodipodi:docname="flammable.svg"
   inkscape:version="1.0.1 (c497b03c, 2020-09-10)">
  <metadata
     id="metadata22">
    <rdf:RDF>
      <cc:Work
         rdf:about="">
        <dc:format>image/svg+xml</dc:format>
        <dc:type
           rdf:resource="http://purl.org/dc/dcmitype/StillImage" />
        <dc:title></dc:title>
      </cc:Work>
    </rdf:RDF>
  </metadata>
  <defs
     id="defs20" />
  <sodipodi:namedview
     pagecolor="#ffffff"
     bordercolor="#666666"
     borderopacity="1"
     objecttolerance="10"
     gridtolerance="10"
     guidetolerance="10"
     inkscape:pageopacity="0"
     inkscape:pageshadow="2"
     inkscape:window-width="1920"
     inkscape:window-height="1035"
     id="namedview18"
     showgrid="false"
     units="px"
     inkscape:zoom="2.3082902"
     inkscape:cx="195.22287"
     inkscape:cy="79.793323"
     inkscape:window-x="1920"
     inkscape:window-y="57"
     inkscape:window-maximized="1"
     inkscape:current-layer="svg16" />
  <path
     d="M 5.5852286,74.845155 75.470606,144.73636 145.36764,74.833503 C 122.06118,51.551673 98.800771,28.223709 75.48226,4.9539501 Z"
     style="fill:#ffffff;stroke:none;stroke-width:0.999998"
     id="path10" />
  <path
     d="M 37.972056,37.346408 0.47643061,74.845158 37.974558,112.34641 75.470183,149.84516 112.97331,112.33891 150.47644,74.832653 112.98581,37.338903 C 92.367223,16.718591 75.490191,-0.15484693 75.482687,-0.15484693 c -0.0075,0 -16.887038,16.87593893 -37.510631,37.50125493 z M 107.04584,43.279372 138.59649,74.832653 107.03333,106.39844 75.467681,137.96672 43.919534,106.39844 12.371388,74.830152 43.922035,43.276874 c 17.352231,-17.353681 31.553148,-31.55078 31.560652,-31.55078 0.0075,0 14.210922,14.199601 31.563153,31.553278 z"
     style="fill:#ff0000;stroke:none;stroke-width:0.999998"
     id="path12" />
  <path
     d="m 75.522256,30.295223 c -4.653587,8.888869 1.016586,13.906494 -5.234217,27.000485 -3.316446,-2.649981 -1.393795,-12.553378 -7.98036,-12.719346 1.013643,3.041184 0.254963,4.222479 0.08602,5.320684 -0.655187,4.259064 -2.175628,8.065264 0.780831,13.725247 -4.541566,-2.206721 -4.616945,-6.255701 -8.456799,-8.795012 0.760232,4.308346 -1.070509,13.04466 4.029883,21.415091 -4.544893,-0.44707 -6.052178,-2.194356 -10.971341,-6.908947 5.133844,26.597208 8.95323,27.344368 27.779065,28.853458 -1.418426,-0.1663 -10.903958,-1.68127 -14.339503,-12.613461 -0.194997,-2.706939 -0.302046,2.378886 8.820746,2.54784 -5.776398,-9.14899 -4.202738,-7.417126 -3.526975,-12.739199 2.391228,3.642299 0.296324,3.960815 7.05395,6.66409 -2.142544,-6.807714 3.30671,-11.465928 2.124126,-19.237846 1.493176,3.413267 6.804453,2.875708 6.551042,19.264317 4.397716,-4.906735 4.922339,-1.510566 7.034098,-7.001596 0.122312,3.056987 1.463925,6.863319 -4.51294,13.129647 1.520467,0.422389 4.066299,0.749481 8.205346,-2.038271 -4.030097,4.567822 -0.387756,4.675544 -10.580925,12.150219 12.839498,0.16895 21.272347,-7.914135 20.969957,-25.676933 -0.33788,1.520593 -0.71632,4.556877 -7.642889,5.486128 4.338759,-4.311676 6.599849,-12.896173 3.13656,-19.992271 -1.21937,1.134174 -3.11457,6.40749 -7.675968,7.928083 2.313664,-3.796178 1.793265,-8.70898 1.793265,-8.70898 0,0 0.59026,-6.635234 -3.328459,-11.75977 -1.098114,8.025349 -1.006382,12.061022 -6.074602,13.328181 C 84.377789,54.180556 84.527996,51.97486 81.993887,46.56831 79.347139,40.921447 76.282484,35.363865 75.522252,30.295223 Z M 54.320702,102.77299 v 2.32284 2.32945 h 22.597786 22.597783 l -0.007,-2.32283 -0.007,-2.31622 -22.584573,-0.007 z"
     style="fill:#000000;stroke:none;stroke-width:0.799997"
     id="path14" />
</svg>
