<?xml version="1.0" encoding="UTF-8" standalone="no"?>
<svg
   xmlns:dc="http://purl.org/dc/elements/1.1/"
   xmlns:cc="http://creativecommons.org/ns#"
   xmlns:rdf="http://www.w3.org/1999/02/22-rdf-syntax-ns#"
   xmlns:svg="http://www.w3.org/2000/svg"
   xmlns="http://www.w3.org/2000/svg"
   xmlns:sodipodi="http://sodipodi.sourceforge.net/DTD/sodipodi-0.dtd"
   xmlns:inkscape="http://www.inkscape.org/namespaces/inkscape"
   height="200"
   width="200"
   viewBox="0 0 253.8674 253.8674"
   version="1.1"
   id="svg839"
   sodipodi:docname="healthhazard.svg"
   inkscape:version="1.0.1 (c497b03c, 2020-09-10)">
  <metadata
     id="metadata845">
    <rdf:RDF>
      <cc:Work
         rdf:about="">
        <dc:format>image/svg+xml</dc:format>
        <dc:type
           rdf:resource="http://purl.org/dc/dcmitype/StillImage" />
        <dc:title></dc:title>
      </cc:Work>
    </rdf:RDF>
  </metadata>
  <defs
     id="defs843" />
  <sodipodi:namedview
     pagecolor="#ffffff"
     bordercolor="#666666"
     borderopacity="1"
     objecttolerance="10"
     gridtolerance="10"
     guidetolerance="10"
     inkscape:pageopacity="0"
     inkscape:pageshadow="2"
     inkscape:window-width="1920"
     inkscape:window-height="1035"
     id="namedview841"
     showgrid="false"
     inkscape:zoom="0.92265193"
     inkscape:cx="362"
     inkscape:cy="362"
     inkscape:window-x="1920"
     inkscape:window-y="57"
     inkscape:window-maximized="1"
     inkscape:current-layer="svg839" />
  <path
     fill="#ff0000"
     d="M 127.00346,253.93716 253.93716,127.00346 127.00346,0.0697605 0.0697605,127.00346 Z"
     id="path833"
     style="stroke-width:1" />
  <path
     fill="#ffffff"
     d="M 127.00346,233.81628 20.190643,127.00346 127.00346,20.162423 233.81628,127.00346 Z"
     id="path835"
     style="stroke-width:1" />
  <path
     d="m 127.59608,45.334691 c -14.95662,0 -27.09123,13.065874 -27.09123,29.179512 0,10.469631 3.91694,25.172268 11.55328,34.174457 l -0.93408,9.5553 -20.487739,7.42187 c 0.32735,1.60008 1.74399,2.80225 3.4372,2.80225 0.29913,0 0.58979,-0.0423 0.86635,-0.11288 0.38944,1.51259 1.75811,2.62728 3.3864,2.62728 0.17215,0 0.34147,-0.0141 0.50796,-0.0395 0.40073,1.49566 1.760929,2.59906 3.386409,2.59906 0.47692,0 0.93126,-0.0959 1.34609,-0.26809 0.11006,1.12316 1.06108,2.00362 2.21528,2.00362 0.22576,0 0.44587,-0.0339 0.65188,-0.0988 0.2822,1.65087 1.72142,2.90949 3.45413,2.90949 1.34892,0 2.52005,-0.76194 3.1042,-1.87663 0.5898,0.44869 1.32352,0.71678 2.11933,0.71678 0.51642,0 1.00745,-0.1157 1.44769,-0.31606 0.45716,0.97077 1.30658,1.7186 2.33944,2.04031 -0.0395,0.12699 -0.0705,0.26244 -0.0705,0.40354 0,0.71397 0.57851,1.28966 1.28965,1.28966 0.71115,0 1.28966,-0.57569 1.28966,-1.28966 0,-0.15803 -0.031,-0.30759 -0.0847,-0.44869 1.50412,-0.52772 2.58495,-1.95565 2.58495,-3.64039 0,-0.7704 -0.22858,-1.48719 -0.61802,-2.08828 0.63213,-0.0847 1.11752,-0.61802 1.11752,-1.27272 0,-0.55594 -0.35275,-1.02721 -0.8466,-1.205 0.53618,-0.61802 0.86635,-1.411 0.86635,-2.30558 0,-0.16649 -0.0169,-0.33299 -0.0395,-0.49385 1.32352,-0.50231 2.2576,-1.78068 2.2576,-3.27916 0,-0.93691 -0.3725,-1.78351 -0.97076,-2.41282 0.11005,0.031 0.22293,0.0536 0.34146,0.0536 0.71114,0 1.28683,-0.57851 1.28683,-1.28965 0,-0.71397 -0.57569,-1.28966 -1.28683,-1.28966 -0.2822,0 -0.54183,0.0931 -0.7563,0.24834 -0.2568,-0.47974 -0.72243,-0.82685 -1.27554,-0.91715 0.43458,-0.71115 0.68856,-1.54082 0.68856,-2.43539 0,-0.57851 -0.11005,-1.1288 -0.30195,-1.64241 1.32916,-0.49667 2.28582,-1.77786 2.28582,-3.27917 0,-0.87764 -0.32171,-1.67627 -0.8466,-2.29146 0.97359,-0.32171 1.67627,-1.23886 1.67627,-2.32251 0,-0.88893 -0.47692,-1.66498 -1.18524,-2.09393 0.333,-0.41765 0.53054,-0.94255 0.53054,-1.51823 0,-0.14675 -0.0141,-0.29067 -0.0395,-0.42895 0.50796,-0.0254 0.97641,-0.19754 1.3602,-0.48538 -0.031,0.15238 -0.0452,0.30477 -0.0452,0.4628 0,0.86918 0.45152,1.63112 1.1288,2.06571 -0.13545,0.37251 -0.21165,0.77323 -0.21165,1.19089 0,1.43075 0.8466,2.6555 2.077,3.20297 -0.11288,0.40072 -0.17779,0.82402 -0.17779,1.25861 0,1.48438 0.69986,2.80507 1.78633,3.65168 -0.95102,0.41483 -1.61701,1.36302 -1.61701,2.46643 0,1.1034 0.66317,2.04877 1.61137,2.46643 -0.18908,0.32735 -0.29914,0.70832 -0.29914,1.11469 0,0.89175 0.52207,1.65651 1.27837,2.01209 -0.21729,0.539 -0.33864,1.12598 -0.33864,1.74117 0,0.73937 0.17779,1.43922 0.48821,2.06006 -0.14957,0.16932 -0.2822,0.34429 -0.40919,0.53336 -0.23423,-0.23705 -0.55876,-0.38379 -0.91715,-0.38379 -0.71115,0 -1.28966,0.57569 -1.28966,1.28966 0,0.71114 0.57851,1.28683 1.28966,1.28683 0.0621,0 0.11852,-0.008 0.17778,-0.0169 -0.008,0.11852 -0.0169,0.23705 -0.0169,0.35839 0,0.89458 0.2568,1.72425 0.69421,2.43257 -0.37532,0.71114 -0.5898,1.52106 -0.5898,2.38177 0,1.3207 0.50232,2.51723 1.31788,3.42591 -0.22576,0.36686 -0.3584,0.79581 -0.3584,1.25861 0,1.31788 1.06672,2.38742 2.38742,2.38742 1.17395,0 2.14754,-0.8466 2.34791,-1.96412 0.64623,-0.0705 1.25297,-0.25962 1.80326,-0.54464 0.2822,0.61237 0.90304,1.04132 1.62265,1.04132 0.99052,0 1.79197,-0.80145 1.79197,-1.79198 0,-0.74783 -0.46281,-1.38842 -1.11469,-1.65651 0.18061,-0.38944 0.31042,-0.80992 0.38943,-1.2445 0.38662,0.10441 0.79017,0.16367 1.21064,0.16367 0.0508,0 0.10442,-0.006 0.15804,-0.006 0.31324,0.80709 1.09776,1.37714 2.01773,1.37714 0.7055,0 1.33198,-0.33864 1.72706,-0.86354 0.22294,0.81274 0.96513,1.411 1.85124,1.411 0.66881,0 1.25861,-0.34428 1.6029,-0.86635 0.3725,0.22858 0.80709,0.36404 1.27836,0.36404 1.35174,0 2.44668,-1.09776 2.44668,-2.4495 0,-0.45152 -0.12417,-0.872 -0.33864,-1.23604 0.18625,0.0621 0.38661,0.0931 0.5898,0.0931 1.06107,0 1.92178,-0.85789 1.92178,-1.91896 0,-0.0903 -0.008,-0.17779 -0.0226,-0.26527 0.40919,0.78734 1.22757,1.32352 2.17576,1.32352 1.33481,0 2.41846,-1.06672 2.44386,-2.39588 0.63777,-0.39508 1.08365,-1.07519 1.1542,-1.86253 0.12416,0.0423 0.25398,0.0677 0.39225,0.0677 0.71115,0 1.28966,-0.57569 1.28966,-1.28965 0,-0.14675 -0.0254,-0.29067 -0.0734,-0.4233 l -1.95847,-0.62931 -20.45953,-6.58656 -0.0818,-8.7341 c 3.1042,-3.34125 5.5283,-7.64762 7.28359,-12.329329 3.32432,-8.861087 5.10782,-18.230137 5.10782,-23.134778 0,-12.699014 -12.13461,-29.179512 -27.09123,-29.179512 z M 85.661115,127.70896 c -0.35275,0 -0.682925,0.10159 -0.962303,0.27373 -4.867955,1.86535 -8.909064,3.41463 -10.441412,4.03547 -3.434377,1.37149 -5.982646,5.04292 -5.982646,8.68048 v 11.7226 l 18.992081,19.27428 c 0.191896,0.0423 0.39508,0.0621 0.601086,0.0621 1.052608,0 1.972581,-0.57287 2.463609,-1.41101 0.380971,0.14393 0.795801,0.22577 1.227571,0.22577 1.93872,0 3.51057,-1.57186 3.51057,-3.51058 0,-0.13827 -0.0113,-0.27655 -0.0254,-0.40919 0.51925,0.64342 1.31506,1.05543 2.20963,1.05543 1.56904,0 2.850229,-1.27272 2.850229,-2.85022 0,-0.42612 -0.096,-0.82685 -0.262449,-1.18806 0.564399,-0.20037 1.055429,-0.57569 1.394069,-1.06108 0.36122,0.36968 0.86353,0.59827 1.411,0.59827 1.09776,0 2.00362,-0.89176 2.00362,-1.97541 0,-0.57286 -0.24269,-1.08647 -0.6293,-1.4505 0.72807,-0.35276 1.28119,-1.00746 1.49848,-1.80326 0.45716,0.50231 1.09211,0.84095 1.80326,0.91432 -0.2822,0.34711 -0.45999,0.79017 -0.45999,1.27555 0,1.09776 0.89176,1.9754 2.00363,1.9754 1.11186,0 2.00362,-0.89175 2.00362,-1.9754 0,-0.90022 -0.59827,-1.65934 -1.411,-1.90485 0.63212,-0.52207 1.03567,-1.31223 1.03567,-2.19552 0,-0.26245 -0.0367,-0.51078 -0.10441,-0.75065 0.0875,0.006 0.17496,0.0113 0.26244,0.0113 0.40073,0 0.7817,-0.0818 1.12598,-0.2314 0.031,0.76476 0.65471,1.37714 1.42794,1.37714 0.79016,0 1.43357,-0.64342 1.43357,-1.43358 0,-0.77323 -0.61237,-1.39689 -1.37996,-1.42793 0.14957,-0.34429 0.23423,-0.72526 0.23423,-1.12598 0,-0.24552 -0.0367,-0.47974 -0.096,-0.7055 0.71397,0 1.29248,-0.57569 1.29248,-1.28966 0,-0.71114 -0.57851,-1.28683 -1.29248,-1.28683 -0.0367,0 -0.0705,0.006 -0.10723,0.008 -0.0734,-1.07236 -0.62649,-2.01208 -1.44769,-2.60471 2.8e-4,-0.0818 0.0113,-0.16367 0.0113,-0.24833 0,-1.93872 -1.57186,-3.50775 -3.51058,-3.50775 -0.67445,0 -1.30376,0.19189 -1.83712,0.52489 0.0762,-0.20318 0.11852,-0.4233 0.11852,-0.65188 0,-1.01592 -0.8212,-1.83995 -1.83712,-1.83995 -0.18343,0 -0.35557,0.0282 -0.52207,0.0762 0.0254,-0.16368 0.0395,-0.333 0.0395,-0.50232 0,-1.93872 -1.56904,-3.51057 -3.50775,-3.51057 -0.60109,0 -1.165489,0.14956 -1.659339,0.41483 -0.44305,-0.72243 -1.1288,-1.2699 -1.96694,-1.52106 0.10442,-0.2314 0.1665,-0.49103 0.1665,-0.76194 0,-1.01592 -0.82402,-1.83994 -1.83994,-1.83994 -0.23987,0 -0.46563,0.048 -0.67446,0.12981 -0.0141,-1.92743 -1.5775,-3.48518 -3.50775,-3.48518 -0.31324,0 -0.61238,0.0452 -0.90022,0.12135 -0.279379,-0.65753 -0.931262,-1.12033 -1.693203,-1.12033 -0.448698,0 -0.857889,0.16085 -1.176775,0.42894 -0.124168,-0.8974 -0.888931,-1.58879 -1.820192,-1.58879 m 85.873549,0.41201 c -0.86353,0.0677 -1.56621,0.70268 -1.73271,1.53517 -0.26244,-0.13545 -0.55875,-0.21165 -0.87482,-0.21165 -1.06107,0 -1.91896,0.85789 -1.91896,1.91897 0,0.10441 0.008,0.206 0.0254,0.30477 -0.58416,-0.43459 -1.30659,-0.69421 -2.0911,-0.69421 -1.93872,0 -3.51058,1.56903 -3.51058,3.50775 v 0.0169 c -0.35557,-0.0847 -0.72525,-0.13828 -1.10904,-0.13828 -2.56803,0 -4.63091,2.07418 -4.63091,4.63373 0,0.23987 0.0226,0.4741 0.0593,0.7055 -0.27373,-0.12134 -0.57569,-0.18907 -0.89175,-0.18907 -0.7309,0 -1.37714,0.35557 -1.78351,0.8974 -0.42048,-0.13828 -0.86635,-0.21448 -1.33198,-0.21448 -2.283,0 -4.13988,1.80326 -4.23301,4.06369 -0.14674,-0.031 -0.29631,-0.0452 -0.45152,-0.0452 -1.22757,0 -2.22374,0.99616 -2.22374,2.22373 0,0.37533 0.0931,0.72526 0.25398,1.03568 -0.35275,-0.20036 -0.76194,-0.31606 -1.19653,-0.31606 -1.35174,0 -2.44949,1.09775 -2.44949,2.44949 0,0.7055 0.30195,1.34046 0.77887,1.78633 v 0.0226 c -0.5644,0.0564 -1.0385,0.43741 -1.21911,0.95666 -0.0734,0.16085 -0.11288,0.33864 -0.11288,0.52489 0,0.45152 0.23423,0.8466 0.58698,1.08083 0.24551,0.18907 0.54747,0.30477 0.88046,0.30477 0.6152,0 1.12881,-0.38661 1.34328,-0.92844 0.33299,0.18061 0.71396,0.2822 1.12033,0.2822 0.18343,0 0.36122,-0.0226 0.53336,-0.0621 -0.0141,0.14674 -0.0226,0.29631 -0.0226,0.4487 0,0.55876 0.11005,1.09211 0.30759,1.58314 -0.79016,0.18625 -1.37996,0.89176 -1.37996,1.73836 0,0.26244 0.0564,0.50796 0.15804,0.7309 0.25398,0.64623 0.88046,1.10622 1.617,1.10622 0.61238,0 1.14574,-0.31606 1.45616,-0.79016 0.1157,-0.16368 0.20883,-0.34146 0.26809,-0.53618 0.55029,0.26245 1.16549,0.41201 1.81737,0.41201 0.20318,0 0.3979,-0.0197 0.59262,-0.0452 -0.1157,0.3076 -0.18061,0.64059 -0.18061,0.99052 0,0.45999 0.11288,0.89176 0.3076,1.27555 -0.0903,-0.0169 -0.18343,-0.0282 -0.27938,-0.0282 -0.79016,0 -1.43358,0.64059 -1.43358,1.43358 0,0.79016 0.64342,1.43357 1.43358,1.43357 0.71397,0 1.30094,-0.52489 1.40818,-1.20781 0.38661,1.51823 1.76093,2.64139 3.3864,2.64139 0.73655,0 1.41101,-0.22576 1.97541,-0.61237 0.16932,1.40818 1.36867,2.50029 2.822,2.50029 0.73936,0 1.411,-0.2822 1.91896,-0.75065 -0.006,0.0847 -0.0141,0.17214 -0.0141,0.25962 0,1.9359 1.57186,3.50775 3.51057,3.50775 0.66317,0 1.28119,-0.18625 1.81173,-0.50796 -0.26527,0.36122 -0.4233,0.80709 -0.4233,1.28966 0,1.21064 0.97923,2.18987 2.18705,2.18987 0.7309,0 1.37714,-0.36121 1.77504,-0.90868 l 18.99208,-17.4936 v -12.81189 c 0,-3.8859 -4.18221,-8.74257 -9.23924,-10.46964 -1.1288,-0.38661 -8.62404,-2.822 -8.62404,-2.822 m -43.28953,1.6932 c -0.99052,0 -1.79197,0.80145 -1.79197,1.79197 0,0.68293 0.38662,1.26991 0.95102,1.57186 -0.539,0.15521 -0.93409,0.64624 -0.93409,1.23322 0,0.71396 0.57852,1.28965 1.28966,1.28965 0.71114,0 1.28966,-0.57569 1.28966,-1.28965 0,-0.42895 -0.21165,-0.8071 -0.53618,-1.04132 0.86071,-0.12982 1.52105,-0.86636 1.52105,-1.76376 0,-0.99052 -0.80144,-1.79197 -1.78915,-1.79197 m -6.40594,1.66216 -0.008,0.0762 -0.0903,-0.048 c 0.0339,-0.008 0.0677,-0.0197 0.0988,-0.0282 m 3.88872,6.09835 c -0.71397,0 -1.28966,0.57851 -1.28966,1.28966 0,0.71114 0.57569,1.28965 1.28966,1.28965 0.71114,0 1.28965,-0.57851 1.28965,-1.28965 0,-0.71115 -0.57851,-1.28966 -1.28965,-1.28966 m -11.88064,1.37149 c -1.01592,0 -1.83994,0.82403 -1.83994,1.83995 0,1.01592 0.82402,1.83712 1.83994,1.83712 1.01593,0 1.83995,-0.8212 1.83995,-1.83712 0,-1.01592 -0.82402,-1.83995 -1.83995,-1.83995 m 20.84332,3.26788 c -0.79298,0 -1.43922,0.64624 -1.43922,1.43923 0,0.7958 0.64624,1.44204 1.43922,1.44204 0.1157,0 0.22858,-0.0169 0.333,-0.0451 0.0536,1.01592 0.88893,1.82301 1.91614,1.82301 0.1411,0 0.27655,-0.0169 0.40919,-0.0452 0.89175,-0.10159 1.58596,-0.8466 1.58596,-1.7694 0,-0.32735 -0.0931,-0.6293 -0.24551,-0.89457 -0.30196,-0.66599 -0.97077,-1.1288 -1.74964,-1.1288 -0.31607,0 -0.61238,0.0762 -0.87482,0.21165 -0.17779,-0.59262 -0.72244,-1.03003 -1.37432,-1.03003 m -19.99389,3.29327 c -0.71397,0 -1.28966,0.57851 -1.28966,1.28966 0,0.71397 0.57569,1.28965 1.28966,1.28965 0.27091,0 0.52489,-0.0847 0.73372,-0.2314 0.048,0.94819 0.8212,1.6932 1.78068,1.6932 0.99053,0 1.79197,-0.80145 1.79197,-1.79197 0,-0.9877 -0.80144,-1.78915 -1.79197,-1.78915 -0.49385,0 -0.93972,0.20036 -1.26425,0.52207 -0.13546,-0.5644 -0.64342,-0.99052 -1.25015,-0.99052 m 25.11583,9.17433 c -1.06108,0 -1.91897,0.85789 -1.91897,1.91896 0,0.24269 0.0452,0.4741 0.12699,0.68857 -0.69421,0.096 -1.23321,0.68857 -1.23321,1.411 0,0.20319 0.0452,0.39508 0.12134,0.5644 0.20037,0.50514 0.6914,0.86636 1.26991,0.86636 h 0.0367 c 0.79581,0 1.43922,-0.64342 1.43922,-1.43358 0,-0.0649 -0.0113,-0.12699 -0.0198,-0.18907 0.0593,0.006 0.11852,0.008 0.17779,0.008 1.06107,0 1.91896,-0.85789 1.91896,-1.91896 0,-1.06107 -0.85789,-1.91896 -1.91896,-1.91896 m -15.04128,2.42128 c -0.99052,0 -1.79197,0.80427 -1.79197,1.79197 0,0.99052 0.80145,1.79197 1.79197,1.79197 0.9877,0 1.78915,-0.80145 1.78915,-1.79197 0,-0.9877 -0.80145,-1.79197 -1.78915,-1.79197 m -10.44141,0.26244 c -0.79016,0 -1.43358,0.6406 -1.43358,1.43358 0,0.79016 0.64342,1.43076 1.43358,1.43076 0.79016,0 1.43075,-0.6406 1.43075,-1.43076 0,-0.79298 -0.64059,-1.43358 -1.43075,-1.43358 m 2.09957,3.88872 c -1.09776,0 -2.00362,0.89176 -2.00362,1.97541 0,0.99898 0.73654,1.82301 1.6932,1.96693 -0.006,0.0734 -0.0141,0.14675 -0.0141,0.22294 -0.60956,-0.50232 -1.38843,-0.80709 -2.24067,-0.80709 -1.27555,0 -2.39024,0.68574 -3.00544,1.6932 -0.51924,-0.57287 -1.26708,-0.93408 -2.10239,-0.93408 -1.32634,0 -2.43821,0.90868 -2.75145,2.13907 -0.45717,-0.31324 -1.00746,-0.49385 -1.6029,-0.49385 -1.56903,0 -2.85022,1.2699 -2.85022,2.85023 0,0.22011 0.0254,0.43176 0.0734,0.63777 -0.75348,-0.68575 -1.752459,-1.10905 -2.850219,-1.10905 -1.75247,0 -3.25377,1.06108 -3.90283,2.57367 -0.45717,-0.31042 -1.00746,-0.49385 -1.6029,-0.49385 -1.56904,0 -2.85022,1.2699 -2.85022,2.85022 0,0.22858 0.0282,0.45152 0.079,0.66317 l 34.484879,35.02106 c 0.45152,-0.18907 0.76758,-0.63495 0.76758,-1.1542 0,-0.49103 -0.28784,-0.91151 -0.69985,-1.11751 0.4882,-0.17214 0.84095,-0.62931 0.84095,-1.17678 0,-0.51642 -0.31324,-0.95948 -0.75911,-1.15137 0.44305,-0.29067 0.73372,-0.79017 0.73372,-1.35739 0,-0.77605 -0.54183,-1.411 -1.26708,-1.58596 1.44204,-0.99617 2.39023,-2.65833 2.39023,-4.54343 0,-1.16549 -0.36121,-2.24349 -0.97641,-3.13242 0.99335,-0.62084 1.65369,-1.72142 1.65369,-2.97722 0,-1.411 -0.84095,-2.63857 -2.05159,-3.19168 0.47692,-0.36404 0.78451,-0.93408 0.78451,-1.58032 0,-0.67446 -0.33581,-1.2699 -0.8466,-1.63112 0.29067,-0.34428 0.46281,-0.78734 0.46281,-1.27272 0,-1.09776 -0.89175,-1.97541 -2.00362,-1.97541 -0.1665,0 -0.32453,0.0226 -0.47974,0.0593 0.22294,-0.45999 0.35275,-0.97642 0.35275,-1.52389 0,-0.51078 -0.11288,-0.99616 -0.31042,-1.43357 1.03285,-0.0734 1.84559,-0.93126 1.84559,-1.97541 0,-0.8466 -0.54182,-1.58314 -1.30094,-1.86252 0.74218,-0.64341 1.21628,-1.59161 1.21628,-2.65268 0,-1.21346 -0.6152,-2.283 -1.5521,-2.91231 0.54182,-0.61802 0.87482,-1.42793 0.87482,-2.31404 0,-0.77605 -0.25398,-1.49002 -0.68293,-2.07135 0.55312,-0.19754 0.95102,-0.72243 0.95102,-1.34327 0,-0.79016 -0.6406,-1.43358 -1.43358,-1.43358 -0.48256,0 -0.90868,0.24269 -1.16831,0.60955 -0.64059,-0.79298 -1.62265,-1.30094 -2.72323,-1.30094 -0.51643,0 -1.00181,0.11288 -1.44204,0.31042 -0.33582,-0.62366 -0.99617,-1.04979 -1.75529,-1.04979 z m 19.50004,0.57287 c -1.31788,0 -2.38742,1.06954 -2.38742,2.38741 0,0.40637 0.10442,0.79017 0.2822,1.12316 -0.34428,-0.2822 -0.78451,-0.45434 -1.26425,-0.45434 -1.10058,0 -2.00362,0.88893 -2.00362,1.9754 0,0.94537 0.66034,1.73553 1.54645,1.9359 -0.25962,0.49102 -0.40919,1.04696 -0.40919,1.63958 0,1.1288 0.54465,2.14754 1.38561,2.78814 -0.32171,0.59826 -0.50514,1.28119 -0.50514,2.00644 0,1.12598 0.44023,2.14755 1.15702,2.90667 -0.23423,0.52771 -0.36686,1.10904 -0.36686,1.72142 0,0.23705 0.0254,0.46845 0.0621,0.69421 -0.28784,-0.19754 -0.6293,-0.32735 -0.99899,-0.35275 0.2427,-0.33017 0.38944,-0.73654 0.38944,-1.17678 0,-1.10058 -0.89175,-1.9754 -2.00362,-1.9754 -1.10058,0 -2.00362,0.88893 -2.00362,1.9754 0,0.52772 0.20318,1.00464 0.539,1.36021 -0.83249,0.23705 -1.44487,1.00463 -1.44487,1.91332 0,1.09776 0.89176,1.9754 2.00362,1.9754 0.0621,0 0.12135,-0.0113 0.18343,-0.0169 -0.36686,0.62648 -0.58133,1.35738 -0.58133,2.13625 0,1.48156 0.75912,2.7825 1.90768,3.54162 -1.51824,0.64624 -2.58496,2.15319 -2.58496,3.90847 0,1.27273 0.56158,2.41282 1.45051,3.19169 -0.91997,0.63213 -1.52388,1.69038 -1.52388,2.88973 0,0.49103 0.10159,0.95666 0.2822,1.37996 -0.2568,0.42612 -0.40637,0.92279 -0.40637,1.45615 0,0.6152 0.20036,1.18524 0.53336,1.65087 -0.28784,0.22859 -0.47692,0.57852 -0.47692,0.97642 0,0.42894 0.2173,0.80991 0.54747,1.03567 -0.34428,0.22294 -0.5644,0.60673 -0.5644,1.04697 0,0.079 0.008,0.15803 0.0226,0.23422 -0.28221,0.22858 -0.4741,0.57569 -0.4741,0.97359 0,0.51925 0.31606,0.96231 0.76476,1.1542 l 37.16578,-34.31556 c 0.0734,-0.20882 0.1157,-0.43176 0.1157,-0.66599 0,-1.10058 -0.89175,-1.9754 -1.9754,-1.9754 -0.34146,0 -0.66317,0.0875 -0.94255,0.23705 -0.34428,-1.18242 -1.4364,-2.04595 -2.72887,-2.04595 -0.55876,0 -1.07519,0.16367 -1.51542,0.44023 0.006,-0.0734 0.0113,-0.14392 0.0113,-0.2173 0,-1.93871 -1.57186,-3.51057 -3.51057,-3.51057 -0.45435,0 -0.88611,0.0903 -1.28401,0.24834 -0.0508,-1.05543 -0.91716,-1.89639 -1.97541,-1.89639 -1.10058,0 -1.9754,0.89176 -1.9754,2.00362 0,0.0847 0.006,0.16932 0.0169,0.25116 -0.49949,-0.81273 -1.39689,-1.35738 -2.42128,-1.35738 -0.16367,0 -0.3217,0.0169 -0.47691,0.0423 -0.0226,-1.91896 -1.58315,-3.46824 -3.50775,-3.46824 -0.19754,0 -0.38662,0.0197 -0.57569,0.0508 -0.0931,-1.01027 -0.94537,-1.80043 -1.9754,-1.80043 -0.85789,0 -1.58597,0.54182 -1.86817,1.30094 -0.0875,-0.006 -0.17497,-0.0113 -0.26527,-0.0113 -0.40072,0 -0.78734,0.0593 -1.1542,0.16086 -0.34146,-0.90022 -1.21064,-1.54364 -2.2322,-1.54364 z m -7.95805,7.82541 c -0.79298,0 -1.43358,0.64342 -1.43358,1.43358 0,0.42895 0.1919,0.80709 0.48821,1.06954 -0.38379,0.36122 -0.62366,0.87482 -0.62366,1.44487 0,1.09776 0.89175,1.9754 2.00362,1.9754 1.10058,0 2.00362,-0.89175 2.00362,-1.9754 0,-0.8071 -0.47974,-1.49849 -1.17113,-1.81173 0.11852,-0.20883 0.1919,-0.44588 0.1919,-0.70268 0,-0.79016 -0.6406,-1.43358 -1.43076,-1.43358"
     id="path837"
     style="stroke-width:1" />
</svg>
