<?xml version="1.0" encoding="UTF-8" standalone="no"?>
<svg
   xmlns:dc="http://purl.org/dc/elements/1.1/"
   xmlns:cc="http://creativecommons.org/ns#"
   xmlns:rdf="http://www.w3.org/1999/02/22-rdf-syntax-ns#"
   xmlns:svg="http://www.w3.org/2000/svg"
   xmlns="http://www.w3.org/2000/svg"
   xmlns:sodipodi="http://sodipodi.sourceforge.net/DTD/sodipodi-0.dtd"
   xmlns:inkscape="http://www.inkscape.org/namespaces/inkscape"
   version="1.0"
   width="200"
   height="200"
   viewBox="0 0 150 150"
   id="svg839"
   sodipodi:docname="oxidationdanger.svg"
   inkscape:version="1.0.1 (c497b03c, 2020-09-10)">
  <metadata
     id="metadata845">
    <rdf:RDF>
      <cc:Work
         rdf:about="">
        <dc:format>image/svg+xml</dc:format>
        <dc:type
           rdf:resource="http://purl.org/dc/dcmitype/StillImage" />
        <dc:title></dc:title>
      </cc:Work>
    </rdf:RDF>
  </metadata>
  <defs
     id="defs843" />
  <sodipodi:namedview
     pagecolor="#ffffff"
     bordercolor="#666666"
     borderopacity="1"
     objecttolerance="10"
     gridtolerance="10"
     guidetolerance="10"
     inkscape:pageopacity="0"
     inkscape:pageshadow="2"
     inkscape:window-width="1920"
     inkscape:window-height="1035"
     id="namedview841"
     showgrid="false"
     units="px"
     inkscape:zoom="0.86528497"
     inkscape:cx="386"
     inkscape:cy="386"
     inkscape:window-x="1920"
     inkscape:window-y="57"
     inkscape:window-maximized="1"
     inkscape:current-layer="svg839" />
  <path
     d="M 6.7749647,75.276102 76.66034,145.1673 146.55737,75.264449 C 123.25091,51.982621 99.990508,28.654658 76.671995,5.3849017 Z"
     style="fill:#ffffff;stroke:none;stroke-width:0.999998"
     id="path833" />
  <path
     d="M 39.161792,37.777357 1.6661677,75.276104 39.164293,112.77735 76.659917,150.2761 114.16304,112.76985 151.66617,75.263599 114.17555,37.769852 C 93.556956,17.149542 76.679925,0.27610473 76.672421,0.27610473 c -0.0075,0 -16.887037,16.87593827 -37.510629,37.50125227 z M 108.23557,43.710321 139.78622,75.263599 108.22057,106.83188 76.657416,138.39766 45.109269,106.82938 13.561124,75.261098 45.111771,43.707822 C 62.464,26.354143 76.664917,12.157046 76.672421,12.157046 c 0.0075,0 14.210922,14.199599 31.563149,31.553275 z"
     style="fill:#ff0000;stroke:none;stroke-width:0.999998"
     id="path835" />
  <path
     d="m 76.030416,20.978204 c -2.338216,2.530854 -0.0073,12.943915 -4.837183,22.705553 -2.503981,-2.671134 -3.508059,-7.680552 -6.345908,-10.184741 1.497176,3.839758 -2.673636,3.506392 -1.171247,16.862067 -2.267269,-0.566865 -2.337147,-1.501113 -7.345107,-7.511164 0.932451,5.8283 0.340205,9.517337 1.508725,16.028228 0,0 -1.207056,-0.254352 -7.014247,-4.513316 1.88476,6.34919 -1.407876,19.718122 6.094454,29.17111 l -0.02647,-0.01985 c 0.577364,8.554177 6.606613,15.620414 14.637277,17.755459 H 57.019161 v 6.1479 h 40.470877 v -6.1479 H 81.707986 c 7.265683,-1.931955 12.888475,-7.902252 14.319652,-15.359828 v -0.0066 c 1.98898,-3.179288 10.884862,-13.47103 4.043122,-30.031419 0,0 -2.007252,3.680078 -5.677576,4.672142 0,0 4.702484,-7.839297 0.833769,-14.188489 0,0 -1.1339,4.639175 -5.002613,4.837586 0,0 1.883072,-9.8947 -3.176263,-16.193672 -1.836252,4.17365 1.099518,5.903166 -5.009231,9.350903 C 81.203095,31.49297 78.534397,29.325522 76.030416,20.978225 Z m -1.336677,28.04609 c 2.332471,1.435486 4.010347,3.90444 4.519557,8.536918 0.223977,2.037612 0.985579,3.205291 1.541811,5.274359 -1.333865,-0.284313 -2.717467,-0.436773 -4.135759,-0.436773 -1.733174,0 -3.413419,0.222302 -5.015848,0.641924 -0.355214,-6.748687 3.17686,-5.266953 3.090239,-14.016428 z m -8.509737,4.844205 c 0,0 0.933605,5.882762 3.315224,9.853852 -1.678081,0.648732 -3.244016,1.523548 -4.665136,2.580929 -0.782404,-6.098615 0.989421,-7.477657 1.349912,-12.434781 z m 20.698645,3.004465 c 0,0 0.874482,5.890373 2.06457,9.840617 -1.885878,-1.507119 -4.054844,-2.675557 -6.41208,-3.414767 0.993412,-2.033117 2.521591,-4.710448 4.34751,-6.42585 z m -29.883338,6.511881 c 0,0 1.77237,1.787893 6.405463,4.083162 -1.625715,1.461801 -3.005877,3.191361 -4.076203,5.115532 -0.722488,-2.366528 -1.736402,-5.937716 -2.32926,-9.198694 z m 39.233459,2.170627 c 0.15549,2.176989 0.15821,7.47321 -0.833767,10.350186 l 0.0066,0.09927 c -0.876432,-2.672375 -2.306303,-5.092601 -4.15561,-7.127333 1.192875,-0.953427 3.221152,-2.473864 4.982757,-3.322119 z m -19.785467,2.309601 c 7.798929,2e-6 14.127751,6.335967 14.127751,14.135547 0,7.799579 -6.328822,14.128925 -14.127751,14.128925 -7.798928,0 -14.127752,-6.329346 -14.127752,-14.128925 0,-7.799577 6.328822,-14.135547 14.127752,-14.135547 z"
     style="fill:#000000;stroke:none;stroke-width:0.799997"
     id="path837" />
</svg>
