<?xml version="1.0" encoding="UTF-8" standalone="no"?>
<svg
   xmlns:dc="http://purl.org/dc/elements/1.1/"
   xmlns:cc="http://creativecommons.org/ns#"
   xmlns:rdf="http://www.w3.org/1999/02/22-rdf-syntax-ns#"
   xmlns:svg="http://www.w3.org/2000/svg"
   xmlns="http://www.w3.org/2000/svg"
   xmlns:sodipodi="http://sodipodi.sourceforge.net/DTD/sodipodi-0.dtd"
   xmlns:inkscape="http://www.inkscape.org/namespaces/inkscape"
   height="200"
   width="200"
   viewBox="0 0 203.03867 203.03867"
   version="1.1"
   id="svg839"
   sodipodi:docname="toxic.svg"
   inkscape:version="1.0.1 (c497b03c, 2020-09-10)">
  <metadata
     id="metadata845">
    <rdf:RDF>
      <cc:Work
         rdf:about="">
        <dc:format>image/svg+xml</dc:format>
        <dc:type
           rdf:resource="http://purl.org/dc/dcmitype/StillImage" />
        <dc:title></dc:title>
      </cc:Work>
    </rdf:RDF>
  </metadata>
  <defs
     id="defs843" />
  <sodipodi:namedview
     pagecolor="#ffffff"
     bordercolor="#666666"
     borderopacity="1"
     objecttolerance="10"
     gridtolerance="10"
     guidetolerance="10"
     inkscape:pageopacity="0"
     inkscape:pageshadow="2"
     inkscape:window-width="1920"
     inkscape:window-height="1035"
     id="namedview841"
     showgrid="false"
     inkscape:zoom="0.92265193"
     inkscape:cx="362"
     inkscape:cy="375.55147"
     inkscape:window-x="1920"
     inkscape:window-y="57"
     inkscape:window-maximized="1"
     inkscape:current-layer="svg839" />
  <path
     d="M 102.41753,203.73509 203.93687,102.21576 102.41753,0.69642862 0.89820372,102.21576 Z"
     fill="#ff0000"
     id="path833"
     style="stroke-width:1" />
  <path
     d="M 102.41753,187.633 17.028498,102.24396 102.41753,16.854923 187.80657,102.24396 Z"
     fill="#ffffff"
     id="path835"
     style="stroke-width:1" />
  <path
     d="m 100.75374,101.31336 c 2.32085,0 1.53689,-0.93905 3.51934,-0.93905 1.61585,0 1.06877,0.91367 3.2599,0.91367 2.03321,0 2.52952,-1.536886 2.52952,-2.162916 0,-0.96444 -1.09415,-1.58483 -1.59047,-2.8933 -0.49631,-1.30283 -1.46075,-6.125003 -4.40481,-6.125003 -1.08287,0 -1.72019,0.442737 -2.52952,1.407171 -1.32821,1.565089 -1.43537,4.193312 -2.255986,5.214142 -0.80933,0.98982 -1.12235,2.05295 -1.12235,2.60849 0,0.60065 0.28764,1.973976 2.608476,1.973976 m -22.714942,16.49972 -2.227786,1.05467 c -2.230605,1.07441 -5.013927,3.31912 -5.592023,7.92415 -0.09588,0.75575 -1.801968,2.76076 -3.550357,2.76076 -1.074412,0 -2.346224,-0.71064 -2.521063,-1.76813 -0.304558,-1.81607 -1.677889,-8.33305 -1.737109,-8.6094 -0.169198,-0.8037 -0.958793,-1.31976 -1.765308,-1.14774 -0.806515,0.17202 -1.319751,0.9588 -1.147732,1.76531 2.82e-4,0.0169 0.214318,1.0293 0.214318,1.0293 -2.588743,-1.23516 -2.695902,-1.45793 -2.695902,-2.34905 0,-1.09979 2.537983,-2.50132 4.54017,-2.50132 1.683529,0 2.97226,0.48221 4.221512,0.94751 1.127993,0.423 2.292645,0.85728 3.609577,0.85728 1.895027,0 2.436464,-0.19176 3.307838,-0.6627 l 0.733195,-0.35814 c 1.147733,-0.48221 10.050414,-4.73193 13.973008,-6.60721 0.547077,0.78395 1.201313,1.57073 1.957068,2.32648 M 88.44171,97.808134 c 3.465757,2.15164 3.412177,2.05576 3.429097,3.412166 -0.0423,0.3666 -0.0564,0.97008 -0.0564,2.08961 0,3.69418 7.190957,6.79616 11.708563,6.79616 5.0111,0 11.64652,-3.38398 11.64652,-6.90614 v -1.90067 c 0,-1.500226 0.15792,-1.638406 3.05404,-3.338846 v 7.047126 c 0,1.97117 -2.70154,6.17858 -7.58293,8.63478 l -0.15792,0.079 c -2.36314,1.18721 -5.30156,2.53799 -6.51416,2.53799 -1.11953,0 -4.909576,-1.10544 -7.924136,-2.62541 -4.884213,-2.45338 -7.582935,-6.66361 -7.582935,-8.63478 z M 57.98591,86.274406 c -0.0056,2.82e-4 -0.01128,0.0085 -0.01974,0.01128 0.0056,-2.82e-4 0.01128,-0.0085 0.01974,-0.01128 m 87.67322,-2.791782 c 0.65706,0 0.94187,0.214319 1.09979,0.377878 0.9588,0.989813 0.86574,3.885934 0.80088,6.000921 l -0.0367,1.677889 c -0.0169,0.823434 0.63449,1.46921 1.45511,1.48895 0.82061,0.01692 1.50305,-0.665516 1.52279,-1.48895 l 0.0141,-0.600656 c 0.0846,0.228418 0.12408,0.422997 0.12408,0.549896 v 2.865102 c 0,0.81215 -0.23688,1.78223 -1.35923,1.78223 -0.92214,0 -2.10371,-0.57528 -3.24298,-1.128 -1.31411,-0.64013 -2.56619,-1.24643 -3.82672,-1.24643 l -0.21432,-0.008 c -0.74165,-0.0367 -2.287,-0.10716 -4.46403,0.91086 l -0.0423,0.0197 -16.28539,8.262536 v -4.139726 c 2.40826,-1.09979 11.64652,-5.33541 13.93071,-6.514157 2.57464,-1.325392 4.54017,-4.159473 5.69636,-5.854282 l 0.44838,-0.640136 c 0.77549,-1.065953 2.38852,-2.309565 4.38789,-2.309565 z m -75.124303,11.19533 -0.02256,-0.008 c -2.177025,-1.02084 -3.722375,-0.94752 -4.46403,-0.91086 l -0.214319,0.008 c -1.268992,0 -2.512603,0.6063 -3.826715,1.24643 -1.127992,0.55554 -2.318025,1.128 -3.242979,1.128 -1.125172,0 -1.359231,-0.96726 -1.359231,-1.78223 v -2.865102 c 0,-0.126899 0.03948,-0.321478 0.12408,-0.549897 l 0.0141,0.597837 c 0.01692,0.823434 0.699356,1.50587 1.52279,1.48895 0.820615,-0.01692 1.474851,-0.665516 1.455111,-1.48895 l -0.03666,-1.677889 c -0.06768,-2.114987 -0.157919,-5.011108 0.798055,-6.000921 0.157919,-0.160739 0.442737,-0.377878 1.099793,-0.377878 1.999367,0 3.615216,1.243612 4.390711,2.309565 l 0.448377,0.640136 c 1.167472,1.691989 3.130179,4.54017 5.696363,5.854282 1.996546,1.029293 9.10854,4.294827 12.571477,5.885297 V 102.2496 Z M 103.55681,48.204656 c 8.27946,0 12.30076,3.454477 17.39928,8.087707 l 2.70154,2.422364 1.00674,0.874194 c 3.23734,2.805882 6.29702,5.456664 6.29702,7.027394 0,1.945787 -0.67962,3.885935 -1.60175,5.696363 0.10716,-0.662696 0.1128,-1.099793 0.1128,-1.942968 0,-3.206319 -0.88548,-4.588109 -4.15948,-8.011567 l -2.15164,2.058587 c 3.06814,3.206318 3.33322,3.888754 3.33322,5.95016 0,1.283092 0,1.283092 -0.65142,4.173573 l -0.86291,3.874655 0.0987,0.352497 c 0.0113,0.03666 1.01237,3.716736 1.01237,7.247353 0,3.694176 -2.25599,5.070327 -5.10417,6.824355 l -0.89675,0.552716 -3.07096,1.849905 c -3.24298,1.90349 -4.85883,2.74385 -4.85883,6.068596 v 1.90067 c 0,1.10261 -4.16793,3.92824 -8.6094,3.92824 -4.077696,0 -8.567106,-2.81999 -8.730666,-3.84646 0,-1.36205 0.0592,-1.95143 0.0592,-1.95143 0,-3.259896 -1.579186,-4.176386 -4.729105,-6.003736 -0.877015,-0.50759 -1.965528,-1.14209 -3.248619,-1.945785 l -0.896754,-0.552716 c -2.859462,-1.748388 -4.901128,-2.741022 -4.901128,-6.824355 0,-4.294832 1.023653,-5.828902 1.023653,-7.154293 0,-1.325392 -1.42973,-6.485958 -1.42973,-7.295292 0,-0.10434 0.01128,-0.975714 0.01128,-0.975714 0,-1.931687 0.245339,-3.544717 3.231699,-6.198319 0.242519,-0.214319 0.611936,-0.871375 0.315838,-1.235152 -0.296098,-0.363778 -0.414537,-0.516057 -0.758575,-0.922134 -0.172019,-0.203039 -0.485037,-0.281998 -0.786775,-0.284818 -0.301738,0 -0.595016,0.07896 -0.727555,0.197398 -3.533437,3.13864 -4.258172,5.515884 -4.258172,8.443025 0,0 -0.01128,0.871374 -0.01128,1.001093 0,0.795235 -0.03384,0.394798 0.375058,2.067047 -1.274632,-2.160106 -2.346225,-4.59093 -2.346225,-7.035854 0,-1.51997 2.913041,-4.159473 5.998101,-6.951254 l 1.347951,-1.223872 c 1.065953,-0.972894 2.002187,-1.880928 2.887661,-2.760762 2.041666,-2.005007 3.651876,-3.587017 5.527164,-4.54017 4.227153,-2.143186 8.065143,-2.932781 12.075159,-2.932781 M 86.010867,107.57372 c -5.166206,2.47031 -12.718117,6.07142 -13.69665,6.48032 l -0.992634,0.48222 c -0.431457,0.23406 -0.563996,0.30173 -1.892208,0.30173 -0.775494,0 -1.604569,-0.31019 -2.566183,-0.66833 -1.356411,-0.5076 -3.04276,-1.12799 -5.264905,-1.12799 -3.0625,0 -7.512431,2.13472 -7.512431,5.47922 0,2.9779 1.909128,3.87184 5.070327,5.35797 l 1.359231,0.64577 c 0.318658,1.56227 0.623216,3.08788 0.741655,3.80134 0.442737,2.66206 3.13018,4.25817 5.459484,4.25817 3.327578,0 6.232159,-3.25708 6.514158,-5.35797 0.335577,-2.67052 1.618669,-4.50915 3.925414,-5.6174 l 2.196765,-1.04057 12.548918,-5.90786 c 0.860094,0.61757 1.793506,1.19285 2.797416,1.69198 2.45621,1.23516 7.106356,3.0625 9.272096,3.0625 1.92323,0 4.79397,-1.44947 7.92415,-3.02302 1.34231,-0.67397 2.49287,-1.40999 3.52216,-2.21932 l 15.44786,7.43065 c 2.30674,1.11107 3.58983,2.94688 3.92541,5.6174 0.26508,2.11217 3.17812,5.35797 6.51416,5.35797 2.33494,0 5.01393,-1.59047 5.45948,-4.25817 0.11844,-0.71346 0.423,-2.23907 0.74166,-3.80134 l -0.13254,0.062 0.13254,-0.062 1.36205,-0.64577 c 3.1612,-1.48613 5.07033,-2.38289 5.07033,-5.35797 0,-3.3445 -4.44711,-5.47922 -7.51243,-5.47922 -2.22215,0 -3.9085,0.63167 -5.26491,1.12799 -0.95879,0.35814 -1.78787,0.66833 -2.56618,0.66833 -1.32821,0 -1.46075,-0.0705 -1.89221,-0.30173 l -0.99263,-0.48222 c -1.04622,-0.43992 -9.74022,-4.58529 -14.85003,-7.03021 0.0705,-0.21432 0.12972,-0.42582 0.17766,-0.6345 3.4996,-1.77095 17.70949,-8.970356 17.76589,-8.998556 1.50587,-0.70218 2.43646,-0.65988 3.05404,-0.63168 l 0.35531,0.0113 c 0.58092,0 1.56791,0.4794 2.52107,0.9447 1.37615,0.67115 2.93842,1.43255 4.54017,1.43255 2.56618,0 4.33713,-1.95707 4.33713,-4.76013 v -2.865102 c 0,-1.55663 -1.07441,-3.725196 -3.07378,-4.937788 -0.10998,-1.849908 -0.49914,-3.584196 -1.64123,-4.762949 -0.82626,-0.845994 -1.91477,-1.283091 -3.23734,-1.283091 -3.13018,0 -5.55254,1.827348 -6.79616,3.536257 l -0.49067,0.702175 c -0.9447,1.367691 -2.69872,3.914134 -4.60785,4.895488 -1.37333,0.707815 -5.41719,2.588743 -8.86884,4.17921 2.24188,-1.635587 4.15947,-3.832352 4.15947,-7.811346 0,-2.487224 -0.42582,-4.963168 -0.75294,-6.485958 l 0.5358,-0.795235 c 2.14601,-3.099159 5.07597,-7.331951 5.07597,-12.10618 0,-2.929961 -3.07378,-5.592023 -7.32631,-9.277739 l -1.0011,-0.868555 -2.65078,-2.377244 c -5.13237,-4.664249 -9.95454,-9.08034 -19.39583,-9.08034 -4.433006,0 -8.826546,1.127992 -13.42029,3.462937 -2.287005,1.159012 -4.131273,2.97226 -6.260359,5.070327 -0.877014,0.860094 -1.782229,1.751208 -2.808702,2.687442 l -1.339491,1.218232 c -4.049493,3.665976 -6.976634,6.316759 -6.976634,9.1593 0,4.762949 2.93842,9.007021 5.075966,12.10618 l 0.380698,0.563997 c -0.304558,2.179845 -0.620396,5.059047 -0.620396,7.078153 0,2.777682 1.280272,4.734749 2.952521,6.260359 -2.676163,-1.243612 -5.239526,-2.447744 -6.282919,-2.98354 -1.909128,-0.981354 -3.663156,-3.527797 -4.60785,-4.895488 l -0.490677,-0.702175 c -1.243612,-1.720189 -3.694175,-3.536257 -6.796155,-3.536257 -1.322571,0 -2.413904,0.431457 -3.237339,1.283091 -1.142092,1.178753 -1.53407,2.913041 -1.641229,4.765769 0.0056,-2.82e-4 0.01128,-0.0056 0.01974,-0.01128 -0.0056,2.82e-4 -0.01128,0.0056 -0.01974,0.01128 -1.999367,1.212592 -3.0766,3.381158 -3.0766,4.937788 v 2.865102 c 0,2.80306 1.785048,4.76013 4.339952,4.76013 1.610209,0 3.169659,-0.7614 4.54017,-1.43255 0.953154,-0.4653 1.937327,-0.9447 2.521063,-0.9447 l 0.355318,-0.0113 c 0.617576,-0.0282 1.54817,-0.0733 3.05404,0.63168 0.05358,0.0254 11.336326,5.747116 16.279753,8.234346 m 34.06537,4.06077 c 3.03712,1.45229 13.75869,6.5762 15.0023,7.10635 l 0.7332,0.35814 c 0.86855,0.47094 1.40999,0.6627 3.30784,0.6627 1.31411,0 2.48158,-0.4371 3.60957,-0.85728 1.24643,-0.4653 2.53799,-0.94751 4.22152,-0.94751 2.00218,0 4.54017,1.40153 4.54017,2.50132 0,0.89111 -0.10716,1.11389 -2.69591,2.34905 0.12972,-0.61476 0.2115,-1.01238 0.21714,-1.02648 0.1692,-0.80369 -0.34404,-1.59329 -1.15055,-1.76531 -0.8037,-0.1692 -1.59329,0.34404 -1.76249,1.14774 -0.0592,0.27635 -1.43255,6.79615 -1.73711,8.6094 -0.17766,1.05749 -1.44665,1.76531 -2.52106,1.76531 -1.74839,0 -3.45448,-2.00501 -3.55036,-2.76076 -0.57809,-4.61349 -3.3586,-6.8582 -5.5892,-7.92415 l -14.38191,-6.91742 c 0.6909,-0.75011 1.28309,-1.52279 1.77377,-2.28418 m -3.89157,-20.614062 c 4.96316,0 7.04995,-6.232159 7.04995,-7.836729 0,-1.604569 -1.26899,-2.284185 -2.01629,-2.284185 h -9.44129 c -1.00674,0 -3.43192,0.820615 -3.43192,2.388524 0,0.586557 0.43992,1.878108 1.38743,3.13018 1.63559,2.165746 3.05404,4.59093 6.4493,4.59093 m -24.672016,0.01128 c 3.38398,0 4.82217,-2.425184 6.4493,-4.59093 0.94751,-1.254892 1.38743,-2.537984 1.38743,-3.13018 0,-1.567909 -2.42519,-2.388524 -3.43192,-2.388524 h -9.441297 c -0.747295,0 -2.013467,0.671156 -2.013467,2.284185 0,1.604569 2.089606,7.836729 7.049954,7.836729 m -2.566183,6.136276 h -2.210847 c 1.060313,0.48786 1.864008,0.846 2.210866,1.01238 v -1.01238 m -2.932781,10.349336 c 0.0705,0.60347 0.242518,1.25771 0.510417,1.94014 z"
     id="path837"
     style="stroke-width:1" />
</svg>
