<?xml version="1.0" encoding="UTF-8" standalone="no"?>
<svg
   xmlns:dc="http://purl.org/dc/elements/1.1/"
   xmlns:cc="http://creativecommons.org/ns#"
   xmlns:rdf="http://www.w3.org/1999/02/22-rdf-syntax-ns#"
   xmlns:svg="http://www.w3.org/2000/svg"
   xmlns="http://www.w3.org/2000/svg"
   xmlns:sodipodi="http://sodipodi.sourceforge.net/DTD/sodipodi-0.dtd"
   xmlns:inkscape="http://www.inkscape.org/namespaces/inkscape"
   version="1.1"
   width="200"
   height="200"
   viewBox="0 0 570 570"
   id="svg1054"
   sodipodi:docname="warning.svg"
   inkscape:version="1.0.1 (c497b03c, 2020-09-10)">
  <metadata
     id="metadata1060">
    <rdf:RDF>
      <cc:Work
         rdf:about="">
        <dc:format>image/svg+xml</dc:format>
        <dc:type
           rdf:resource="http://purl.org/dc/dcmitype/StillImage" />
        <dc:title></dc:title>
      </cc:Work>
    </rdf:RDF>
  </metadata>
  <defs
     id="defs1058">
    <filter
       style="color-interpolation-filters:sRGB"
       inkscape:label="Drop Shadow"
       id="filter1072">
      <feFlood
         flood-opacity="1"
         flood-color="rgb(0,0,0)"
         result="flood"
         id="feFlood1062" />
      <feComposite
         in="flood"
         in2="SourceGraphic"
         operator="in"
         result="composite1"
         id="feComposite1064" />
      <feGaussianBlur
         in="composite1"
         stdDeviation="10"
         result="blur"
         id="feGaussianBlur1066" />
      <feOffset
         dx="6"
         dy="6"
         result="offset"
         id="feOffset1068" />
      <feComposite
         in="SourceGraphic"
         in2="offset"
         operator="over"
         result="composite2"
         id="feComposite1070" />
    </filter>
  </defs>
  <sodipodi:namedview
     pagecolor="#ffffff"
     bordercolor="#666666"
     borderopacity="1"
     objecttolerance="10"
     gridtolerance="10"
     guidetolerance="10"
     inkscape:pageopacity="0"
     inkscape:pageshadow="2"
     inkscape:window-width="1920"
     inkscape:window-height="1035"
     id="namedview1056"
     showgrid="false"
     inkscape:zoom="0.57707255"
     inkscape:cx="814.69397"
     inkscape:cy="493.43681"
     inkscape:window-x="1920"
     inkscape:window-y="57"
     inkscape:window-maximized="1"
     inkscape:current-layer="svg1054"
     inkscape:document-rotation="0"
     units="px"
     scale-x="2.85" />
  <path
     d="M 25.301165,289.67172 289.32987,553.70044 553.40261,289.6277 C 465.35022,201.6757 377.47182,113.54942 289.3739,25.643024 Z"
     style="fill:#808080;stroke:none"
     id="path1048" />
  <path
     d="M 6,289.67173 289.32827,573 572.70378,289.62449 289.37551,6.34347 Z M 527.82103,289.62449 289.32827,528.1078 50.948893,289.60559 289.37551,51.22622 Z"
     style="fill:#ff0000;stroke:none"
     id="path1050" />
  <path
     d="m 289.175,142.825 c -0.87285,0.009 -1.58484,0.0311 -1.925,0.05 -12.3593,0.85041 -23.29003,5.21838 -30.15,12.05 -2.18272,2.17327 -3.56553,4.05882 -4.775,6.525 -0.85041,1.72917 -1.28149,3.03028 -1.65,4.75 -0.23623,1.12443 -0.275,1.37063 -0.275,3.525 0,2.08823 0.0232,2.43718 0.25,3.675 0.24567,1.37955 19.50097,131.43008 19.775,133.575 0.18898,1.49294 0.70196,3.461 1.25,4.85 2.86305,7.22848 9.1847,12.28836 16.725,13.375 1.41735,0.20787 4.50765,0.20787 5.925,0 9.32616,-1.34176 16.75607,-8.88604 17.975,-18.25 0.34016,-2.61738 19.52933,-132.36494 19.775,-133.65 0.21733,-1.22837 0.225,-1.5785 0.225,-3.525 0,-2.2772 -0.0654,-3.09367 -0.5,-4.7 -0.73702,-2.70241 -2.19741,-5.50606 -4.125,-7.925 -1.53074,-1.9276 -4.03106,-4.19918 -6.45,-5.9 -5.44262,-3.81739 -13.01245,-6.69447 -20.6,-7.8 -3.40164,-0.49135 -4.61922,-0.5872 -8.55,-0.625 -0.98742,-0.009 -2.02715,-0.009 -2.9,0 z m 2.1,201.125 c -0.49666,-0.002 -0.96909,0.006 -1.425,0.025 -7.50251,0.32126 -14.60954,3.51565 -20.175,9.1 -1.68193,1.68193 -2.75214,2.96571 -4.075,4.95 -3.07093,4.62056 -4.70293,9.10599 -5.525,15.125 -0.16063,1.20947 -0.17008,6.68324 0,8.025 0.81262,6.6143 3.23418,12.48868 7.25,17.525 0.97325,1.22837 2.94997,3.27006 4.15,4.3 3.62841,3.10872 8.00622,5.42892 12.4,6.525 2.8725,0.71812 4.36628,0.9 7.475,0.9 3.06148,0 4.61313,-0.19468 7.325,-0.875 7.38911,-1.84256 14.03732,-6.60125 18.45,-13.225 3.25046,-4.89459 5.1242,-10.31543 5.625,-16.325 0.13229,-1.61577 0.0484,-5.70765 -0.15,-7.125 -0.55749,-4.11032 -1.55253,-7.45111 -3.225,-10.9 -4.71506,-9.68522 -13.70453,-16.3921 -23.9,-17.8 -1.11262,-0.14882 -2.71001,-0.22102 -4.2,-0.225 z"
     style="fill:#e6e6e6;stroke:none"
     id="path1052" />
</svg>
